<svg width="208" height="58" viewBox="0 0 208 58" fill="none" xmlns="http://www.w3.org/2000/svg">
<g filter="url(#filter0_f)">
<circle cx="29" cy="29" r="21" stroke="#814BF6" stroke-width="3"/>
</g>
<circle cx="29" cy="29" r="21" stroke="#814BF6" stroke-width="3"/>
<g filter="url(#filter1_f)">
<circle cx="29" cy="29" r="12.9706" stroke="#00BCFF" stroke-width="3"/>
</g>
<circle cx="29" cy="29" r="12.9706" stroke="#00BCFF" stroke-width="3"/>
<path d="M70.92 37.312C69.384 37.312 68.096 37.008 67.056 36.4C66.032 35.776 65.264 34.944 64.752 33.904C64.256 32.848 64.008 31.648 64.008 30.304C64.008 29.008 64.264 27.832 64.776 26.776C65.288 25.704 66.088 24.848 67.176 24.208C68.264 23.568 69.632 23.248 71.28 23.248C71.952 23.248 72.648 23.336 73.368 23.512C74.088 23.688 74.664 23.92 75.096 24.208L74.304 26.752C73.344 26.192 72.336 25.912 71.28 25.912C70.144 25.912 69.264 26.296 68.64 27.064C68.032 27.816 67.728 28.888 67.728 30.28C67.728 31.672 68.008 32.752 68.568 33.52C69.128 34.288 69.912 34.672 70.92 34.672C71.592 34.672 72.2 34.56 72.744 34.336C73.304 34.096 73.904 33.76 74.544 33.328L75.6 35.656C75.024 36.136 74.328 36.536 73.512 36.856C72.712 37.16 71.848 37.312 70.92 37.312ZM83.9981 37.312C82.4941 37.312 81.2221 37.008 80.1821 36.4C79.1421 35.792 78.3661 34.96 77.8541 33.904C77.3421 32.848 77.0861 31.648 77.0861 30.304C77.0861 28.928 77.3421 27.712 77.8541 26.656C78.3661 25.584 79.1421 24.752 80.1821 24.16C81.2221 23.552 82.4941 23.248 83.9981 23.248C85.5021 23.248 86.7741 23.568 87.8141 24.208C88.8541 24.848 89.6301 25.704 90.1421 26.776C90.6701 27.832 90.9341 28.992 90.9341 30.256C90.9341 31.52 90.6701 32.688 90.1421 33.76C89.6301 34.832 88.8541 35.696 87.8141 36.352C86.7741 36.992 85.5021 37.312 83.9981 37.312ZM84.0221 34.672C86.1501 34.672 87.2141 33.208 87.2141 30.28C87.2141 27.368 86.1501 25.912 84.0221 25.912C81.8781 25.912 80.8061 27.368 80.8061 30.28C80.8061 33.208 81.8781 34.672 84.0221 34.672ZM106.058 17.8V37H103.322L102.962 35.968C101.826 36.864 100.538 37.312 99.0979 37.312C97.8819 37.312 96.8099 37.048 95.8819 36.52C94.9539 35.992 94.2259 35.208 93.6979 34.168C93.1859 33.112 92.9299 31.84 92.9299 30.352C92.9299 27.888 93.6099 26.088 94.9699 24.952C96.3459 23.816 98.1699 23.248 100.442 23.248C101.21 23.248 101.858 23.32 102.386 23.464V17.8H106.058ZM96.6499 30.352C96.6499 31.904 96.9139 33.008 97.4419 33.664C97.9699 34.32 98.6499 34.648 99.4819 34.648C100.058 34.648 100.57 34.584 101.018 34.456C101.482 34.312 101.938 34.088 102.386 33.784V26.128C101.874 25.984 101.298 25.912 100.658 25.912C97.9859 25.912 96.6499 27.392 96.6499 30.352ZM115.967 34.672C116.735 34.672 117.439 34.528 118.079 34.24C118.719 33.952 119.407 33.528 120.143 32.968L121.199 35.296C120.399 35.984 119.583 36.496 118.751 36.832C117.935 37.152 117.007 37.312 115.967 37.312C114.431 37.312 113.143 37.008 112.103 36.4C111.079 35.776 110.311 34.944 109.799 33.904C109.303 32.848 109.055 31.648 109.055 30.304C109.055 28.928 109.311 27.712 109.823 26.656C110.335 25.584 111.103 24.752 112.127 24.16C113.167 23.552 114.447 23.248 115.967 23.248C117.711 23.248 119.055 23.728 119.999 24.688C120.959 25.648 121.447 27 121.463 28.744C121.463 29.384 121.367 30.032 121.175 30.688H112.679C112.727 32 113.015 32.992 113.543 33.664C114.071 34.336 114.879 34.672 115.967 34.672ZM115.751 25.72C114.231 25.72 113.271 26.576 112.871 28.288H117.887C117.903 28.208 117.911 28.096 117.911 27.952C117.895 27.232 117.687 26.68 117.287 26.296C116.903 25.912 116.391 25.72 115.751 25.72ZM128.245 37.312C127.349 37.312 126.485 37.224 125.653 37.048C124.821 36.872 124.093 36.64 123.469 36.352L124.213 33.808C125.637 34.384 126.965 34.672 128.197 34.672C128.933 34.672 129.525 34.56 129.973 34.336C130.437 34.096 130.669 33.736 130.669 33.256C130.669 32.856 130.453 32.528 130.021 32.272C129.605 32.016 128.941 31.728 128.029 31.408C127.133 31.088 126.405 30.792 125.845 30.52C125.285 30.232 124.797 29.848 124.381 29.368C123.981 28.872 123.781 28.264 123.781 27.544C123.781 26.136 124.293 25.072 125.317 24.352C126.341 23.616 127.733 23.248 129.493 23.248C130.229 23.248 130.973 23.328 131.725 23.488C132.477 23.632 133.141 23.84 133.717 24.112L132.949 26.68C131.797 26.168 130.677 25.912 129.589 25.912C128.901 25.912 128.365 26.016 127.981 26.224C127.597 26.416 127.405 26.712 127.405 27.112C127.405 27.512 127.605 27.832 128.005 28.072C128.405 28.296 129.037 28.552 129.901 28.84C130.797 29.128 131.541 29.416 132.133 29.704C132.725 29.992 133.229 30.408 133.645 30.952C134.077 31.496 134.293 32.184 134.293 33.016C134.293 34.36 133.773 35.416 132.733 36.184C131.693 36.936 130.197 37.312 128.245 37.312ZM144.257 23.248C145.457 23.248 146.521 23.528 147.449 24.088C148.377 24.632 149.097 25.44 149.609 26.512C150.137 27.568 150.401 28.832 150.401 30.304C150.401 32.704 149.713 34.472 148.337 35.608C146.977 36.744 145.169 37.312 142.913 37.312C142.145 37.312 141.497 37.24 140.969 37.096V42.592H137.297V23.56H140.033L140.393 24.568C141.545 23.688 142.833 23.248 144.257 23.248ZM142.673 34.672C145.361 34.672 146.705 33.184 146.705 30.208C146.705 28.656 146.433 27.552 145.889 26.896C145.361 26.24 144.681 25.912 143.849 25.912C143.273 25.912 142.761 25.984 142.313 26.128C141.865 26.256 141.417 26.472 140.969 26.776V34.456C141.577 34.6 142.145 34.672 142.673 34.672ZM161.078 23.248C162.774 23.248 163.942 23.696 164.582 24.592C165.222 25.472 165.542 26.76 165.542 28.456V37H161.87V28.888C161.87 27.8 161.726 27.04 161.438 26.608C161.166 26.176 160.654 25.96 159.902 25.96C158.99 25.96 158.054 26.296 157.094 26.968V37H153.422V17.8H157.094V24.424C158.454 23.64 159.782 23.248 161.078 23.248ZM175.334 34.672C176.102 34.672 176.806 34.528 177.446 34.24C178.086 33.952 178.774 33.528 179.51 32.968L180.566 35.296C179.766 35.984 178.95 36.496 178.118 36.832C177.302 37.152 176.374 37.312 175.334 37.312C173.798 37.312 172.51 37.008 171.47 36.4C170.446 35.776 169.678 34.944 169.166 33.904C168.67 32.848 168.422 31.648 168.422 30.304C168.422 28.928 168.678 27.712 169.19 26.656C169.702 25.584 170.47 24.752 171.494 24.16C172.534 23.552 173.814 23.248 175.334 23.248C177.078 23.248 178.422 23.728 179.366 24.688C180.326 25.648 180.814 27 180.83 28.744C180.83 29.384 180.734 30.032 180.542 30.688H172.046C172.094 32 172.382 32.992 172.91 33.664C173.438 34.336 174.246 34.672 175.334 34.672ZM175.118 25.72C173.598 25.72 172.638 26.576 172.238 28.288H177.254C177.27 28.208 177.278 28.096 177.278 27.952C177.262 27.232 177.054 26.68 176.654 26.296C176.27 25.912 175.758 25.72 175.118 25.72ZM192.028 26.776C191.212 26.776 190.46 26.84 189.772 26.968C189.1 27.096 188.348 27.352 187.516 27.736V37H183.844V23.56H186.58L187.156 25.192C187.988 24.488 188.788 23.992 189.556 23.704C190.34 23.416 191.164 23.272 192.028 23.272V26.776ZM200.647 34.672C201.415 34.672 202.119 34.528 202.759 34.24C203.399 33.952 204.087 33.528 204.823 32.968L205.879 35.296C205.079 35.984 204.263 36.496 203.431 36.832C202.615 37.152 201.687 37.312 200.647 37.312C199.111 37.312 197.823 37.008 196.783 36.4C195.759 35.776 194.991 34.944 194.479 33.904C193.983 32.848 193.735 31.648 193.735 30.304C193.735 28.928 193.991 27.712 194.503 26.656C195.015 25.584 195.783 24.752 196.807 24.16C197.847 23.552 199.127 23.248 200.647 23.248C202.391 23.248 203.735 23.728 204.679 24.688C205.639 25.648 206.127 27 206.143 28.744C206.143 29.384 206.047 30.032 205.855 30.688H197.359C197.407 32 197.695 32.992 198.223 33.664C198.751 34.336 199.559 34.672 200.647 34.672ZM200.431 25.72C198.911 25.72 197.951 26.576 197.551 28.288H202.567C202.583 28.208 202.591 28.096 202.591 27.952C202.575 27.232 202.367 26.68 201.967 26.296C201.583 25.912 201.071 25.72 200.431 25.72Z" fill="white"/>
<defs>
<filter id="filter0_f" x="0.5" y="0.5" width="57" height="57" filterUnits="userSpaceOnUse" color-interpolation-filters="sRGB">
<feFlood flood-opacity="0" result="BackgroundImageFix"/>
<feBlend mode="normal" in="SourceGraphic" in2="BackgroundImageFix" result="shape"/>
<feGaussianBlur stdDeviation="3" result="effect1_foregroundBlur"/>
</filter>
<filter id="filter1_f" x="8.52942" y="8.52942" width="40.9412" height="40.9412" filterUnits="userSpaceOnUse" color-interpolation-filters="sRGB">
<feFlood flood-opacity="0" result="BackgroundImageFix"/>
<feBlend mode="normal" in="SourceGraphic" in2="BackgroundImageFix" result="shape"/>
<feGaussianBlur stdDeviation="3" result="effect1_foregroundBlur"/>
</filter>
</defs>
</svg>
