<svg width="17" height="16" viewBox="0 0 17 16" fill="none" xmlns="http://www.w3.org/2000/svg">
<g clip-path="url(#clip0)">
<path d="M16.5 3C15.9 3.3 15.3 3.4 14.6 3.5C15.3 3.1 15.8 2.5 16 1.7C15.4 2.1 14.7 2.3 13.9 2.5C13.3 1.9 12.4 1.5 11.5 1.5C9.8 1.5 8.3 3 8.3 4.8C8.3 5.1 8.3 5.3 8.4 5.5C5.7 5.4 3.2 4.1 1.6 2.1C1.3 2.6 1.2 3.1 1.2 3.8C1.2 4.9 1.8 5.9 2.7 6.5C2.2 6.5 1.7 6.3 1.2 6.1C1.2 7.7 2.3 9 3.8 9.3C3.5 9.4 3.2 9.4 2.9 9.4C2.7 9.4 2.5 9.4 2.3 9.3C2.7 10.6 3.9 11.6 5.4 11.6C4.3 12.5 2.9 13 1.3 13C1 13 0.8 13 0.5 13C2 13.9 3.7 14.5 5.5 14.5C11.5 14.5 14.8 9.5 14.8 5.2C14.8 5.1 14.8 4.9 14.8 4.8C15.5 4.3 16.1 3.7 16.5 3Z" fill="white" fill-opacity="1"/>
</g>
<defs>
<clipPath id="clip0">
<rect width="16" height="16" fill="white" transform="translate(0.5)"/>
</clipPath>
</defs>
</svg>
