<svg width="24" height="24" viewBox="0 0 24 24" fill="none" xmlns="http://www.w3.org/2000/svg">
<path d="M10.3616 1.76217C11.5412 0.74872 13.2842 0.74872 14.4638 1.76217C15.1018 2.3103 15.9326 2.58026 16.771 2.51182C18.321 2.38528 19.7311 3.40976 20.0897 4.92302C20.2837 5.74148 20.7972 6.44824 21.5156 6.88563C22.844 7.69434 23.3826 9.35199 22.7833 10.787C22.4591 11.5632 22.4591 12.4368 22.7833 13.213C23.3826 14.648 22.844 16.3057 21.5156 17.1144C20.7972 17.5518 20.2837 18.2585 20.0897 19.077C19.7311 20.5902 18.321 21.6147 16.771 21.4882C15.9326 21.4197 15.1018 21.6897 14.4638 22.2378C13.2842 23.2513 11.5412 23.2513 10.3616 22.2378C9.72359 21.6897 8.89274 21.4197 8.0544 21.4882C6.50438 21.6147 5.0943 20.5902 4.73567 19.077C4.5417 18.2585 4.0282 17.5518 3.30974 17.1144C1.98138 16.3057 1.44277 14.648 2.0421 13.213C2.36625 12.4368 2.36625 11.5632 2.0421 10.787C1.44277 9.35199 1.98138 7.69434 3.30974 6.88563C4.0282 6.44824 4.5417 5.74148 4.73567 4.92302C5.0943 3.40976 6.50438 2.38528 8.0544 2.51182C8.89274 2.58026 9.72359 2.3103 10.3616 1.76217Z" fill="#1FB881"/>
<path d="M14.728 15.0161H10.536L9.864 17.0001H7L11.064 5.76807H14.232L18.296 17.0001H15.4L14.728 15.0161ZM14.024 12.9041L12.632 8.79207L11.256 12.9041H14.024Z" fill="white"/>
</svg>
