<svg width="10" height="10" viewBox="0 0 10 10" fill="none" xmlns="http://www.w3.org/2000/svg">
<g clip-path="url(#clip0)">
<path d="M8.62835 1.78834C8.58964 1.74953 8.54366 1.71875 8.49304 1.69774C8.44242 1.67674 8.38815 1.66592 8.33335 1.66592C8.27854 1.66592 8.22427 1.67674 8.17365 1.69774C8.12303 1.71875 8.07705 1.74953 8.03835 1.78834L5.00001 4.8275L1.96168 1.78834C1.92297 1.74953 1.87699 1.71875 1.82637 1.69774C1.77575 1.67674 1.72149 1.66592 1.66668 1.66592C1.61187 1.66592 1.55761 1.67674 1.50698 1.69774C1.45636 1.71875 1.41038 1.74953 1.37168 1.78834L0.121679 3.03834C0.0828764 3.07704 0.0520907 3.12302 0.0310853 3.17364C0.0100799 3.22426 -0.000732422 3.27853 -0.000732422 3.33334C-0.000732422 3.38814 0.0100799 3.44241 0.0310853 3.49303C0.0520907 3.54365 0.0828764 3.58963 0.121679 3.62834L4.70501 8.21167C4.74372 8.25047 4.7897 8.28126 4.84032 8.30226C4.89094 8.32327 4.94521 8.33408 5.00001 8.33408C5.05482 8.33408 5.10909 8.32327 5.15971 8.30226C5.21033 8.28126 5.25631 8.25047 5.29501 8.21167L9.87835 3.62834C9.91715 3.58963 9.94793 3.54365 9.96894 3.49303C9.98995 3.44241 10.0008 3.38814 10.0008 3.33334C10.0008 3.27853 9.98995 3.22426 9.96894 3.17364C9.94793 3.12302 9.91715 3.07704 9.87835 3.03834L8.62835 1.78834Z" fill="#938CA7"/>
</g>
<defs>
<clipPath id="clip0">
<rect width="10" height="10" fill="white"/>
</clipPath>
</defs>
</svg>
