<?xml version="1.0" encoding="utf-8"?>
<!-- Generator: Adobe Illustrator 26.0.1, SVG Export Plug-In . SVG Version: 6.00 Build 0)  -->
<svg version="1.1" id="Layer_1" xmlns="http://www.w3.org/2000/svg" xmlns:xlink="http://www.w3.org/1999/xlink" x="0px" y="0px"
	 viewBox="0 0 24 24" style="enable-background:new 0 0 24 24;" xml:space="preserve">
<style type="text/css">
	.st0{fill:none;}
	.st1{fill:#11A1BB;}
</style>
<g>
	<rect class="st0" width="24" height="24"/>
</g>
<g>
	<g>
		<path class="st1" d="M9,15c-2.7,0-8,1.3-8,4v2h16v-2C17,16.3,11.7,15,9,15z"/>
		<path class="st1" d="M22.1,6.8c0-0.1,0-0.2,0-0.3c0-0.1,0-0.2,0-0.3l0.7-0.6c0.1-0.1,0.1-0.2,0-0.2l-0.7-1.2
			c0-0.1-0.1-0.1-0.2-0.1l-0.9,0.3c-0.2-0.1-0.4-0.2-0.6-0.3l-0.1-0.9c0-0.1-0.1-0.1-0.2-0.1h-1.4c-0.1,0-0.2,0.1-0.2,0.2l-0.1,0.9
			c-0.2,0.1-0.4,0.2-0.6,0.3L17,4.1c-0.1,0-0.2,0-0.2,0.1l-0.7,1.2c0,0.1,0,0.2,0,0.2l0.7,0.6c0,0.1,0,0.2,0,0.3s0,0.2,0,0.3
			l-0.7,0.6c-0.1,0.1-0.1,0.2,0,0.2l0.7,1.2C16.9,8.9,17,9,17,8.9l0.9-0.4c0.2,0.1,0.4,0.2,0.6,0.3l0.1,0.9c0,0.1,0.1,0.1,0.2,0.1
			h1.4c0.1,0,0.2-0.1,0.2-0.1l0.1-0.9c0.2-0.1,0.4-0.2,0.6-0.3L22,8.9c0.1,0,0.2,0,0.2-0.1l0.7-1.2c0-0.1,0-0.2,0-0.2L22.1,6.8z
			 M19.5,7.8c-0.7,0-1.2-0.6-1.2-1.2s0.6-1.2,1.2-1.2s1.2,0.6,1.2,1.2S20.2,7.8,19.5,7.8z"/>
		<path class="st1" d="M19.9,11.7l-0.5-0.9c0-0.1-0.1-0.1-0.1-0.1L18.6,11c-0.1-0.1-0.3-0.2-0.4-0.2l-0.1-0.7c0-0.1-0.1-0.1-0.1-0.1
			h-1c-0.1,0-0.1,0-0.1,0.1l-0.1,0.7c-0.1,0.1-0.3,0.1-0.4,0.2l-0.6-0.2c-0.1,0-0.1,0-0.1,0.1l-0.5,0.9c0,0.1,0,0.1,0,0.2l0.5,0.4
			c0,0.1,0,0.2,0,0.2s0,0.2,0,0.2l-0.5,0.4c-0.1,0-0.1,0.1,0,0.2l0.5,0.9c0,0.1,0.1,0.1,0.1,0.1l0.6-0.2c0.1,0.1,0.3,0.2,0.4,0.2
			l0.1,0.7c0,0.1,0.1,0.1,0.1,0.1h1c0.1,0,0.1,0,0.1-0.1l0.1-0.7c0.1-0.1,0.3-0.1,0.4-0.2l0.6,0.2c0.1,0,0.1,0,0.1-0.1l0.5-0.9
			c0-0.1,0-0.1,0-0.2l-0.5-0.4c0-0.1,0-0.2,0-0.2s0-0.2,0-0.2l0.5-0.4C19.9,11.8,19.9,11.7,19.9,11.7z M17.5,13.3
			c-0.5,0-0.8-0.4-0.8-0.8c0-0.5,0.4-0.8,0.8-0.8s0.8,0.4,0.8,0.8C18.3,13,18,13.3,17.5,13.3z"/>
		<path class="st1" d="M4.7,9h8.5c0.3,0,0.5-0.2,0.5-0.5v0c0-0.3-0.2-0.5-0.5-0.5H13c0-1.5-0.8-2.8-2-3.4v0.9C11,5.8,10.8,6,10.5,6
			S10,5.8,10,5.5V4.1C9.7,4.1,9.4,4,9,4S8.3,4.1,8,4.1v1.4C8,5.8,7.8,6,7.5,6S7,5.8,7,5.5V4.6C5.8,5.2,5,6.5,5,8H4.7
			C4.5,8,4.2,8.2,4.2,8.5v0C4.2,8.8,4.5,9,4.7,9z"/>
		<path class="st1" d="M9,13c1.9,0,3.4-1.3,3.9-3H5.1C5.6,11.7,7.1,13,9,13z"/>
	</g>
</g>
</svg>
