<?xml version="1.0" encoding="utf-8"?>
<!-- Generator: Adobe Illustrator 26.0.1, SVG Export Plug-In . SVG Version: 6.00 Build 0)  -->
<svg version="1.1" id="Layer_1" xmlns="http://www.w3.org/2000/svg" xmlns:xlink="http://www.w3.org/1999/xlink" x="0px" y="0px"
	 viewBox="0 0 24 24" style="enable-background:new 0 0 24 24;" xml:space="preserve">
<style type="text/css">
	.st0{fill:none;}
	.st1{fill:url(#SVGID_1_);}
</style>
<rect class="st0" width="24" height="24"/>
<g>
	<linearGradient id="SVGID_1_" gradientUnits="userSpaceOnUse" x1="12" y1="18" x2="12" y2="6">
		<stop  offset="0" style="stop-color:#FE9501"/>
		<stop  offset="0.5" style="stop-color:#014B62"/>
		<stop  offset="1" style="stop-color:#014B62"/>
	</linearGradient>
	<path class="st1" d="M12,12.8c1.6,0,3.1,0.4,4.2,0.9c1.1,0.5,1.8,1.6,1.8,2.7V18H6v-1.6c0-1.2,0.7-2.3,1.8-2.7
		C8.9,13.1,10.4,12.8,12,12.8z M4,13c1.1,0,2-0.9,2-2S5.1,9,4,9s-2,0.9-2,2S2.9,13,4,13z M5.1,14.1C4.8,14,4.4,14,4,14
		c-1,0-1.9,0.2-2.8,0.6c-0.7,0.3-1.2,1-1.2,1.9V18h4.5v-1.6C4.5,15.6,4.7,14.8,5.1,14.1z M20,13c1.1,0,2-0.9,2-2s-0.9-2-2-2
		s-2,0.9-2,2S18.9,13,20,13z M24,16.4c0-0.8-0.5-1.5-1.2-1.9C21.9,14.2,21,14,20,14c-0.4,0-0.8,0-1.1,0.1c0.4,0.7,0.6,1.5,0.6,2.3
		V18H24V16.4z M12,6c1.7,0,3,1.3,3,3s-1.3,3-3,3s-3-1.3-3-3S10.3,6,12,6z"/>
</g>
</svg>
