<svg width="225" height="42" viewBox="0 0 225 42" fill="none" xmlns="http://www.w3.org/2000/svg">
<path d="M12.8476 26.122H0V21.0427L12.1646 2.04878H17.9695V21.5122H22.3659V26.122H17.9695V32.2683H12.8476V26.122ZM12.8476 9.30488H12.7622L5.20732 21.5122H12.8476V9.30488Z" fill="white"/>
<path d="M42.4608 2.04878L35.2047 13.2317L35.2901 13.3171C35.6031 13.1463 36.0157 13.0183 36.5279 12.9329C37.0686 12.8476 37.595 12.8049 38.1072 12.8049C39.4446 12.8049 40.6682 13.061 41.7779 13.5732C42.8877 14.0854 43.8409 14.7825 44.6377 15.6646C45.4629 16.5467 46.0889 17.5711 46.5157 18.7378C46.971 19.9045 47.1986 21.1423 47.1986 22.4512C47.1986 24.0163 46.9283 25.439 46.3877 26.7195C45.847 28 45.093 29.0955 44.1255 30.0061C43.1865 30.8882 42.0482 31.5711 40.7108 32.0549C39.4019 32.5386 37.9791 32.7805 36.4425 32.7805C34.8491 32.7805 33.3978 32.5528 32.0889 32.0976C30.7799 31.6138 29.6417 30.9309 28.6743 30.0488C27.7352 29.1667 26.9954 28.0854 26.4547 26.8049C25.9425 25.5244 25.6865 24.0874 25.6865 22.4939C25.6865 20.9004 25.9425 19.4634 26.4547 18.1829C26.9954 16.874 27.6783 15.5508 28.5035 14.2134L36.2291 2.04878H42.4608ZM31.0645 22.4085C31.0645 23.1768 31.2068 23.9024 31.4913 24.5854C31.7759 25.2398 32.16 25.8232 32.6438 26.3354C33.156 26.8191 33.7393 27.2033 34.3938 27.4878C35.0767 27.7724 35.8023 27.9146 36.5706 27.9146C37.3389 27.9146 38.0503 27.7724 38.7047 27.4878C39.3877 27.2033 39.971 26.8191 40.4547 26.3354C40.9669 25.8232 41.3653 25.2398 41.6499 24.5854C41.9344 23.9024 42.0767 23.1768 42.0767 22.4085C42.0767 21.6402 41.9344 20.9289 41.6499 20.2744C41.3653 19.5915 40.9669 19.0081 40.4547 18.5244C39.971 18.0122 39.3877 17.6138 38.7047 17.3293C38.0503 17.0447 37.3389 16.9024 36.5706 16.9024C35.8023 16.9024 35.0767 17.0447 34.3938 17.3293C33.7393 17.6138 33.156 18.0122 32.6438 18.5244C32.16 19.0081 31.7759 19.5915 31.4913 20.2744C31.2068 20.9289 31.0645 21.6402 31.0645 22.4085Z" fill="white"/>
<path d="M61.7022 1.53659C62.9827 1.53659 64.1778 1.72155 65.2875 2.09146C66.4258 2.43293 67.4075 2.94512 68.2327 3.62805C69.0863 4.28252 69.755 5.10772 70.2388 6.10366C70.7225 7.07114 70.9644 8.19512 70.9644 9.47561C70.9644 11.0976 70.5802 12.5203 69.8119 13.7439C69.0721 14.9675 67.9339 15.8069 66.3973 16.2622V16.3476C67.1087 16.4898 67.7916 16.7886 68.4461 17.2439C69.129 17.6707 69.7266 18.2114 70.2388 18.8659C70.751 19.4919 71.1493 20.2175 71.4339 21.0427C71.7469 21.8679 71.9034 22.75 71.9034 23.689C71.9034 25.1972 71.6331 26.5203 71.0924 27.6585C70.5518 28.7683 69.8262 29.7073 68.9156 30.4756C68.005 31.2439 66.9237 31.8272 65.6717 32.2256C64.4197 32.5955 63.0965 32.7805 61.7022 32.7805C60.2794 32.7805 58.942 32.5955 57.69 32.2256C56.4664 31.8272 55.3993 31.2439 54.4888 30.4756C53.5782 29.7073 52.8526 28.7683 52.3119 27.6585C51.7713 26.5203 51.501 25.1972 51.501 23.689C51.501 22.75 51.6432 21.8679 51.9278 21.0427C52.2408 20.2175 52.6534 19.4919 53.1656 18.8659C53.6778 18.2114 54.2611 17.6707 54.9156 17.2439C55.5985 16.7886 56.2957 16.4898 57.007 16.3476V16.2622C55.4705 15.8069 54.318 14.9675 53.5497 13.7439C52.8099 12.5203 52.44 11.0976 52.44 9.47561C52.44 8.19512 52.6818 7.07114 53.1656 6.10366C53.6493 5.10772 54.3038 4.28252 55.129 3.62805C55.9827 2.94512 56.9644 2.43293 58.0741 2.09146C59.2123 1.72155 60.4217 1.53659 61.7022 1.53659ZM61.7022 5.89024C60.3932 5.89024 59.3688 6.28862 58.629 7.08537C57.9176 7.88211 57.5619 8.84959 57.5619 9.98781C57.5619 11.1829 57.9318 12.1931 58.6717 13.0183C59.4115 13.815 60.4217 14.2134 61.7022 14.2134C62.2713 14.2134 62.7977 14.1138 63.2814 13.9146C63.7936 13.687 64.2347 13.3882 64.6046 13.0183C65.003 12.6199 65.3018 12.1646 65.501 11.6524C65.7286 11.1402 65.8424 10.5854 65.8424 9.98781C65.8424 8.84959 65.444 7.88211 64.6473 7.08537C63.879 6.28862 62.8973 5.89024 61.7022 5.89024ZM61.7022 18.311C61.0192 18.311 60.3648 18.4248 59.7388 18.6524C59.1127 18.8801 58.5721 19.2073 58.1168 19.6342C57.6615 20.061 57.2916 20.5732 57.007 21.1707C56.751 21.7398 56.6229 22.3659 56.6229 23.0488C56.6229 24.5 57.0924 25.6809 58.0314 26.5915C58.9989 27.4736 60.2225 27.9146 61.7022 27.9146C63.1818 27.9146 64.3912 27.4736 65.3302 26.5915C66.2977 25.6809 66.7814 24.5 66.7814 23.0488C66.7814 22.3659 66.6392 21.7398 66.3546 21.1707C66.0985 20.5732 65.7428 20.061 65.2875 19.6342C64.8323 19.2073 64.2916 18.8801 63.6656 18.6524C63.0396 18.4248 62.3851 18.311 61.7022 18.311Z" fill="white"/>
<path d="M111.073 9.13415C109.964 7.93902 108.882 7.14228 107.829 6.7439C106.805 6.34553 105.766 6.14634 104.714 6.14634C103.149 6.14634 101.726 6.43089 100.445 7C99.1932 7.54065 98.1119 8.30894 97.2014 9.30488C96.2908 10.2724 95.5794 11.4106 95.0672 12.7195C94.5835 14.0285 94.3416 15.437 94.3416 16.9451C94.3416 18.5671 94.5835 20.061 95.0672 21.4268C95.5794 22.7927 96.2908 23.9736 97.2014 24.9695C98.1119 25.9654 99.1932 26.748 100.445 27.3171C101.726 27.8862 103.149 28.1707 104.714 28.1707C105.937 28.1707 107.118 27.8862 108.256 27.3171C109.423 26.7195 110.504 25.7805 111.5 24.5L115.939 27.6585C114.573 29.5366 112.909 30.9024 110.945 31.7561C108.982 32.6098 106.89 33.0366 104.671 33.0366C102.338 33.0366 100.189 32.6667 98.2258 31.9268C96.2908 31.1585 94.6119 30.0915 93.1892 28.7256C91.7949 27.3313 90.6993 25.6667 89.9026 23.7317C89.1058 21.7967 88.7075 19.6484 88.7075 17.2866C88.7075 14.8679 89.1058 12.6768 89.9026 10.7134C90.6993 8.72155 91.7949 7.02846 93.1892 5.63415C94.6119 4.23984 96.2908 3.17276 98.2258 2.43293C100.189 1.66463 102.338 1.28049 104.671 1.28049C106.72 1.28049 108.612 1.65041 110.348 2.39024C112.112 3.10163 113.748 4.3252 115.256 6.06098L111.073 9.13415Z" fill="white"/>
<path d="M131.884 29.4512H131.756C131.016 30.6179 130.077 31.4715 128.939 32.0122C127.801 32.5244 126.549 32.7805 125.183 32.7805C124.244 32.7805 123.319 32.6524 122.409 32.3963C121.527 32.1402 120.73 31.7561 120.018 31.2439C119.335 30.7317 118.781 30.0915 118.354 29.3232C117.927 28.5549 117.714 27.6585 117.714 26.6341C117.714 25.5244 117.913 24.5854 118.311 23.8171C118.709 23.0203 119.236 22.3659 119.89 21.8537C120.573 21.313 121.356 20.8862 122.238 20.5732C123.12 20.2602 124.031 20.0325 124.97 19.8902C125.937 19.7195 126.905 19.6199 127.872 19.5915C128.84 19.5346 129.75 19.5061 130.604 19.5061H131.884V18.9512C131.884 17.6707 131.443 16.7175 130.561 16.0915C129.679 15.437 128.555 15.1098 127.189 15.1098C126.108 15.1098 125.098 15.3089 124.159 15.7073C123.22 16.0772 122.409 16.5894 121.726 17.2439L119.037 14.5549C120.175 13.3882 121.498 12.5488 123.006 12.0366C124.543 11.5244 126.122 11.2683 127.744 11.2683C129.195 11.2683 130.419 11.439 131.415 11.7805C132.411 12.0935 133.236 12.5061 133.89 13.0183C134.545 13.5305 135.043 14.1281 135.384 14.811C135.754 15.4654 136.01 16.1341 136.153 16.8171C136.323 17.5 136.423 18.1687 136.451 18.8232C136.48 19.4492 136.494 20.0041 136.494 20.4878V32.2683H131.884V29.4512ZM131.585 23.0915H130.518C129.807 23.0915 129.01 23.1199 128.128 23.1768C127.246 23.2337 126.407 23.376 125.61 23.6037C124.842 23.8028 124.187 24.1159 123.646 24.5427C123.106 24.9411 122.835 25.5102 122.835 26.25C122.835 26.7337 122.935 27.1463 123.134 27.4878C123.362 27.8008 123.646 28.0711 123.988 28.2988C124.329 28.5264 124.714 28.6972 125.14 28.811C125.567 28.8963 125.994 28.939 126.421 28.939C128.185 28.939 129.48 28.5264 130.305 27.7012C131.159 26.8476 131.585 25.6951 131.585 24.2439V23.0915Z" fill="white"/>
<path d="M142.005 11.7805H146.871V14.8537H146.956C147.696 13.6016 148.692 12.6911 149.944 12.122C151.196 11.5528 152.547 11.2683 153.999 11.2683C155.564 11.2683 156.972 11.5528 158.224 12.122C159.476 12.6626 160.543 13.4167 161.425 14.3841C162.308 15.3516 162.976 16.4898 163.432 17.7988C163.887 19.1077 164.115 20.5163 164.115 22.0244C164.115 23.5325 163.873 24.9411 163.389 26.25C162.905 27.5589 162.222 28.6972 161.34 29.6646C160.486 30.6321 159.448 31.4004 158.224 31.9695C157.001 32.5102 155.663 32.7805 154.212 32.7805C153.245 32.7805 152.391 32.6809 151.651 32.4817C150.911 32.2825 150.257 32.0264 149.688 31.7134C149.119 31.4004 148.635 31.0732 148.236 30.7317C147.838 30.3618 147.511 30.0061 147.255 29.6646H147.127V42H142.005V11.7805ZM158.993 22.0244C158.993 21.2276 158.85 20.4594 158.566 19.7195C158.31 18.9797 157.911 18.3252 157.371 17.7561C156.858 17.187 156.232 16.7317 155.493 16.3902C154.753 16.0488 153.913 15.8781 152.974 15.8781C152.035 15.8781 151.196 16.0488 150.456 16.3902C149.716 16.7317 149.076 17.187 148.535 17.7561C148.023 18.3252 147.625 18.9797 147.34 19.7195C147.084 20.4594 146.956 21.2276 146.956 22.0244C146.956 22.8211 147.084 23.5894 147.34 24.3293C147.625 25.0691 148.023 25.7236 148.535 26.2927C149.076 26.8618 149.716 27.3171 150.456 27.6585C151.196 28 152.035 28.1707 152.974 28.1707C153.913 28.1707 154.753 28 155.493 27.6585C156.232 27.3171 156.858 26.8618 157.371 26.2927C157.911 25.7236 158.31 25.0691 158.566 24.3293C158.85 23.5894 158.993 22.8211 158.993 22.0244Z" fill="white"/>
<path d="M168.975 11.7805H174.097V32.2683H168.975V11.7805ZM168.25 4.82317C168.25 3.99797 168.549 3.28659 169.146 2.68903C169.772 2.06301 170.555 1.75 171.494 1.75C172.433 1.75 173.215 2.04878 173.841 2.64634C174.496 3.21545 174.823 3.94106 174.823 4.82317C174.823 5.70529 174.496 6.44512 173.841 7.04268C173.215 7.61179 172.433 7.89634 171.494 7.89634C170.555 7.89634 169.772 7.59756 169.146 7C168.549 6.37398 168.25 5.64838 168.25 4.82317Z" fill="white"/>
<path d="M177.587 16.1341V11.7805H181.813V5.84756H186.935V11.7805H192.569V16.1341H186.935V25.0976C186.935 26.122 187.12 26.9329 187.49 27.5305C187.888 28.128 188.656 28.4268 189.795 28.4268C190.25 28.4268 190.748 28.3841 191.289 28.2988C191.829 28.185 192.256 28.0142 192.569 27.7866V32.0976C192.028 32.3537 191.36 32.5244 190.563 32.6098C189.795 32.7236 189.112 32.7805 188.514 32.7805C187.148 32.7805 186.024 32.624 185.142 32.311C184.289 32.0264 183.606 31.5854 183.093 30.9878C182.61 30.3618 182.268 29.5935 182.069 28.6829C181.898 27.7724 181.813 26.7195 181.813 25.5244V16.1341H177.587Z" fill="white"/>
<path d="M209.372 29.4512H209.244C208.504 30.6179 207.565 31.4715 206.427 32.0122C205.289 32.5244 204.037 32.7805 202.671 32.7805C201.732 32.7805 200.807 32.6524 199.896 32.3963C199.014 32.1402 198.218 31.7561 197.506 31.2439C196.823 30.7317 196.268 30.0915 195.842 29.3232C195.415 28.5549 195.201 27.6585 195.201 26.6341C195.201 25.5244 195.401 24.5854 195.799 23.8171C196.197 23.0203 196.724 22.3659 197.378 21.8537C198.061 21.313 198.844 20.8862 199.726 20.5732C200.608 20.2602 201.518 20.0325 202.457 19.8902C203.425 19.7195 204.392 19.6199 205.36 19.5915C206.327 19.5346 207.238 19.5061 208.092 19.5061H209.372V18.9512C209.372 17.6707 208.931 16.7175 208.049 16.0915C207.167 15.437 206.043 15.1098 204.677 15.1098C203.596 15.1098 202.586 15.3089 201.646 15.7073C200.707 16.0772 199.896 16.5894 199.214 17.2439L196.525 14.5549C197.663 13.3882 198.986 12.5488 200.494 12.0366C202.031 11.5244 203.61 11.2683 205.232 11.2683C206.683 11.2683 207.907 11.439 208.903 11.7805C209.899 12.0935 210.724 12.5061 211.378 13.0183C212.033 13.5305 212.531 14.1281 212.872 14.811C213.242 15.4654 213.498 16.1341 213.64 16.8171C213.811 17.5 213.911 18.1687 213.939 18.8232C213.968 19.4492 213.982 20.0041 213.982 20.4878V32.2683H209.372V29.4512ZM209.073 23.0915H208.006C207.295 23.0915 206.498 23.1199 205.616 23.1768C204.734 23.2337 203.894 23.376 203.098 23.6037C202.329 23.8028 201.675 24.1159 201.134 24.5427C200.594 24.9411 200.323 25.5102 200.323 26.25C200.323 26.7337 200.423 27.1463 200.622 27.4878C200.85 27.8008 201.134 28.0711 201.476 28.2988C201.817 28.5264 202.201 28.6972 202.628 28.811C203.055 28.8963 203.482 28.939 203.909 28.939C205.673 28.939 206.968 28.5264 207.793 27.7012C208.646 26.8476 209.073 25.6951 209.073 24.2439V23.0915Z" fill="white"/>
<path d="M219.578 0H224.7V32.2683H219.578V0Z" fill="white"/>
</svg>
