<svg width="17" height="16" viewBox="0 0 17 16" fill="none" xmlns="http://www.w3.org/2000/svg">
<g clip-path="url(#clip0)">
<path d="M8.5 1.441C10.636 1.441 10.889 1.45 11.733 1.488C12.2402 1.49409 12.7425 1.58746 13.218 1.764C13.5658 1.89248 13.8802 2.09754 14.138 2.364C14.4045 2.62179 14.6095 2.93622 14.738 3.284C14.9145 3.75949 15.0079 4.26183 15.014 4.769C15.052 5.613 15.061 5.869 15.061 8.002C15.061 10.135 15.052 10.391 15.014 11.235C15.0079 11.7422 14.9145 12.2445 14.738 12.72C14.6052 13.0651 14.4015 13.3785 14.14 13.64C13.8785 13.9015 13.5651 14.1052 13.22 14.238C12.7445 14.4145 12.2422 14.5079 11.735 14.514C10.891 14.552 10.635 14.561 8.502 14.561C6.369 14.561 6.113 14.552 5.269 14.514C4.76183 14.5079 4.25949 14.4145 3.784 14.238C3.43622 14.1095 3.12179 13.9045 2.864 13.638C2.59754 13.3802 2.39248 13.0658 2.264 12.718C2.08746 12.2425 1.99409 11.7402 1.988 11.233C1.95 10.389 1.941 10.133 1.941 8C1.941 5.867 1.95 5.611 1.988 4.767C1.99409 4.25983 2.08746 3.75749 2.264 3.282C2.39248 2.93422 2.59754 2.61979 2.864 2.362C3.12179 2.09554 3.43622 1.89048 3.784 1.762C4.25949 1.58546 4.76183 1.49209 5.269 1.486C6.113 1.448 6.369 1.439 8.502 1.439L8.5 1.441ZM8.5 0C6.327 0 6.055 0.009 5.2 0.048C4.53696 0.0614835 3.881 0.187265 3.26 0.42C2.72596 0.620558 2.24231 0.9356 1.843 1.343C1.4356 1.74231 1.12056 2.22596 0.92 2.76C0.687265 3.381 0.561483 4.03696 0.548 4.7C0.509 5.555 0.5 5.827 0.5 8C0.5 10.173 0.509 10.445 0.548 11.3C0.561483 11.963 0.687265 12.619 0.92 13.24C1.12056 13.774 1.4356 14.2577 1.843 14.657C2.24231 15.0644 2.72596 15.3794 3.26 15.58C3.88163 15.813 4.53828 15.9387 5.202 15.952C6.055 15.991 6.327 16 8.5 16C10.673 16 10.945 15.991 11.8 15.952C12.4637 15.9387 13.1204 15.813 13.742 15.58C14.2734 15.3743 14.756 15.0599 15.159 14.657C15.5619 14.254 15.8763 13.7714 16.082 13.24C16.315 12.6184 16.4407 11.9617 16.454 11.298C16.493 10.445 16.502 10.173 16.502 7.998C16.502 5.823 16.493 5.553 16.454 4.698C16.4397 4.03552 16.3132 3.38025 16.08 2.76C15.8794 2.22596 15.5644 1.74231 15.157 1.343C14.7577 0.9356 14.274 0.620558 13.74 0.42C13.119 0.187265 12.463 0.0614835 11.8 0.048C10.945 0.009 10.673 0 8.5 0Z" fill="white" fill-opacity="1"/>
<path d="M8.49997 3.89209C7.68748 3.89209 6.89324 4.13302 6.21769 4.58441C5.54213 5.03581 5.0156 5.67739 4.70467 6.42803C4.39375 7.17867 4.3124 8.00465 4.4709 8.80152C4.62941 9.59839 5.02066 10.3304 5.59517 10.9049C6.16969 11.4794 6.90166 11.8706 7.69854 12.0292C8.49541 12.1877 9.32139 12.1063 10.072 11.7954C10.8227 11.4845 11.4643 10.9579 11.9156 10.2824C12.367 9.60682 12.608 8.81258 12.608 8.00009C12.608 7.46062 12.5017 6.92643 12.2953 6.42803C12.0888 5.92962 11.7862 5.47676 11.4048 5.0953C11.0233 4.71383 10.5704 4.41124 10.072 4.20479C9.57363 3.99835 9.03944 3.89209 8.49997 3.89209ZM8.49997 10.6671C7.97249 10.6671 7.45685 10.5107 7.01826 10.2176C6.57968 9.92457 6.23784 9.50804 6.03598 9.02071C5.83412 8.53338 5.78131 7.99713 5.88422 7.47978C5.98712 6.96244 6.24113 6.48722 6.61412 6.11424C6.9871 5.74125 7.46232 5.48724 7.97966 5.38434C8.49701 5.28143 9.03326 5.33424 9.52059 5.5361C10.0079 5.73796 10.4244 6.0798 10.7175 6.51838C11.0106 6.95697 11.167 7.47261 11.167 8.00009C11.167 8.70742 10.886 9.38578 10.3858 9.88594C9.88566 10.3861 9.2073 10.6671 8.49997 10.6671Z" fill="white" fill-opacity="1"/>
<path d="M12.7701 4.69002C13.3003 4.69002 13.7301 4.26021 13.7301 3.73002C13.7301 3.19983 13.3003 2.77002 12.7701 2.77002C12.2399 2.77002 11.8101 3.19983 11.8101 3.73002C11.8101 4.26021 12.2399 4.69002 12.7701 4.69002Z" fill="white" fill-opacity="1"/>
</g>
<defs>
<clipPath id="clip0">
<rect width="16" height="16" fill="white" transform="translate(0.5)"/>
</clipPath>
</defs>
</svg>
