<svg width="257" height="40" viewBox="0 0 257 40" fill="none" xmlns="http://www.w3.org/2000/svg">
<g clip-path="url(#clip0)">
<path d="M6.37652 10.3547C6.6601 10.8896 7.08427 11.337 7.60333 11.6487C8.29934 12.0675 9.05187 12.3842 9.83788 12.5892C10.9397 12.8857 12.0586 13.1149 13.1883 13.2756C14.7656 13.5243 16.3192 13.9054 17.8326 14.4148C19.0487 14.8164 20.1891 15.4187 21.2064 16.1966C22.0886 16.8786 22.7906 17.7661 23.2511 18.7817C23.7271 19.9233 23.956 21.1527 23.9229 22.3891C23.943 23.7008 23.6611 24.9995 23.0989 26.1848C22.5366 27.3701 21.7092 28.41 20.6806 29.2242C19.5765 30.0843 18.3213 30.7303 16.9797 31.1287C15.4092 31.5998 13.7762 31.8293 12.1367 31.8093C10.4211 31.8369 8.71241 31.5854 7.07755 31.0645C5.71271 30.6271 4.43603 29.9517 3.30656 29.0694C2.30501 28.2833 1.48918 27.2859 0.91719 26.1484C0.364207 25.031 0.0517502 23.8101 0 22.5644L5.12633 21.7757C5.18511 22.5357 5.36252 23.2818 5.65211 23.9869C5.94329 24.7005 6.38462 25.343 6.94611 25.8709C7.56049 26.4397 8.28253 26.8797 9.06966 27.1649C10.0547 27.5089 11.0937 27.6722 12.1367 27.6469C14.0938 27.6469 15.6565 27.2302 16.8249 26.3967C17.9933 25.5633 18.5775 24.3296 18.5775 22.6958C18.5889 22.0672 18.4612 21.4438 18.2036 20.8702C17.9279 20.3137 17.5122 19.8386 16.9972 19.4915C16.3247 19.0421 15.5853 18.702 14.8065 18.4838C13.718 18.1602 12.6083 17.9132 11.4853 17.7448C9.97871 17.5403 8.49168 17.211 7.03958 16.7604C5.82428 16.3936 4.67687 15.8313 3.64247 15.0954C2.72832 14.4326 1.98532 13.5615 1.4751 12.5542C0.937091 11.4263 0.673834 10.1871 0.706879 8.93798C0.684599 7.62687 0.962353 6.32802 1.51891 5.1407C2.05312 4.03764 2.84087 3.07672 3.81773 2.33655C4.87608 1.54562 6.07275 0.95917 7.34628 0.607323C8.80772 0.201642 10.3192 0.00495698 11.8358 0.0231254C14.9613 0.0231254 17.5396 0.746557 19.5706 2.19342C21.6017 3.64028 22.8674 5.66258 23.3679 8.26031L18.1539 9.42871C17.9203 7.79295 17.2776 6.50772 16.2261 5.573C15.1745 4.63829 13.6654 4.16801 11.6986 4.16216C9.7707 4.16216 8.33942 4.5565 7.4047 5.34516C6.94572 5.7291 6.58072 6.21302 6.33769 6.75984C6.09466 7.30666 5.98005 7.90186 6.00263 8.49983C5.98054 9.13883 6.1086 9.77411 6.37652 10.3547Z" fill="white"/>
<path d="M42.0626 10.6905C43.307 11.1884 44.4282 11.9509 45.3487 12.925C46.274 13.9225 46.9822 15.1011 47.4285 16.3864C47.928 17.8277 48.1731 19.3449 48.1529 20.8701C48.1714 22.3905 47.9263 23.9026 47.4285 25.3392C46.9822 26.6245 46.274 27.8031 45.3487 28.8006C44.4282 29.7748 43.307 30.5372 42.0626 31.0351C39.2664 32.0866 36.1835 32.0866 33.3873 31.0351C32.1479 30.5406 31.0336 29.7774 30.1245 28.8006C29.2158 27.797 28.5202 26.6194 28.0798 25.3392C27.577 23.9034 27.327 22.3913 27.3408 20.8701C27.3223 19.3497 27.5674 17.8377 28.0652 16.401C28.5056 15.1208 29.2012 13.9432 30.1099 12.9396C31.0234 11.955 32.145 11.1867 33.3931 10.6905C36.1893 9.63898 39.2722 9.63898 42.0684 10.6905H42.0626ZM40.0909 27.4277C40.7575 27.0529 41.3276 26.5278 41.7559 25.8942C42.2138 25.2051 42.547 24.4408 42.7403 23.6363C43.1785 21.8123 43.1785 19.9104 42.7403 18.0864C42.547 17.2819 42.2138 16.5176 41.7559 15.8285C41.3276 15.1949 40.7575 14.6698 40.0909 14.295C39.3668 13.8969 38.5511 13.6955 37.7249 13.7108C36.908 13.6951 36.1016 13.8967 35.3881 14.295C34.7314 14.6746 34.17 15.1991 33.7465 15.8285C33.2887 16.5176 32.9555 17.2819 32.7622 18.0864C32.324 19.9104 32.324 21.8123 32.7622 23.6363C32.9555 24.4408 33.2887 25.2051 33.7465 25.8942C34.17 26.5236 34.7314 27.0481 35.3881 27.4277C36.1016 27.826 36.908 28.0276 37.7249 28.0119C38.5511 28.0272 39.3668 27.8258 40.0909 27.4277Z" fill="white"/>
<path d="M57.573 0.569336V31.2397H52.5781V0.569336H57.573Z" fill="white"/>
<path d="M77.7474 30.428C76.3006 31.3472 74.4827 31.8077 72.2939 31.8097C70.8314 31.8309 69.3791 31.5629 68.0205 31.021C66.7893 30.5224 65.6825 29.7596 64.7782 28.7864C63.8696 27.7828 63.174 26.6053 62.7336 25.3251C62.2345 23.8737 61.9904 22.3468 62.0121 20.8122C61.9926 19.292 62.2367 17.7799 62.7336 16.343C63.1707 15.0683 63.8669 13.8978 64.7782 12.905C65.6809 11.9484 66.776 11.1938 67.9913 10.6909C69.3046 10.1511 70.7136 9.88282 72.1333 9.90226C73.6265 9.86661 75.1087 10.166 76.471 10.7786C77.6464 11.322 78.6861 12.1202 79.5146 13.1153C80.3298 14.1281 80.9354 15.2928 81.2964 16.5417C81.6904 17.8558 81.8873 19.2212 81.8806 20.5931V21.9951H67.0712C67.0976 22.7658 67.2153 23.5306 67.4217 24.2735C67.6114 24.972 67.9229 25.6316 68.3419 26.2218C68.749 26.7932 69.2841 27.2614 69.9046 27.5888C70.6303 27.9463 71.4328 28.1199 72.2414 28.0942C73.5266 28.0942 74.512 27.8021 75.1974 27.2179C75.9055 26.6051 76.4675 25.8416 76.8419 24.9833L81.1358 26.6921C80.3609 28.2181 79.1907 29.5082 77.7474 30.428ZM68.6135 14.9848C67.7515 16.0443 67.241 17.346 67.153 18.709H76.8799C76.8215 17.0441 76.3541 15.7666 75.4778 14.8767C75.0311 14.4303 74.4969 14.081 73.9088 13.8508C73.3207 13.6206 72.6914 13.5144 72.0603 13.5389C70.5803 13.5389 69.4314 14.0209 68.6135 14.9848Z" fill="white"/>
<path d="M97.3334 14.3948C96.9156 14.2636 96.4803 14.1967 96.0424 14.1961C95.4149 14.199 94.795 14.3334 94.2226 14.5905C93.6012 14.8704 93.0481 15.2821 92.6014 15.7968C92.0806 16.4 91.6836 17.0997 91.433 17.8561C91.1233 18.7981 90.9751 19.7857 90.9949 20.7771V31.2401H86V10.4719H90.6882V13.8602C91.1831 12.6532 92.0299 11.6232 93.1184 10.9042C94.2323 10.2255 95.5184 9.88268 96.8223 9.91688C97.2626 9.91997 97.7021 9.95708 98.1367 10.0279C98.5886 10.0961 99.0302 10.2207 99.4511 10.3988L98.4434 14.9994C98.1161 14.7279 97.7391 14.5225 97.3334 14.3948Z" fill="white"/>
<path d="M102.679 0.856003C103.297 0.331728 104.081 0.0439453 104.892 0.0439453C105.702 0.0439453 106.486 0.331728 107.105 0.856003C107.394 1.14375 107.62 1.48946 107.767 1.87051C107.914 2.25155 107.979 2.65935 107.957 3.06719C107.967 3.46224 107.898 3.85527 107.755 4.22371C107.613 4.59215 107.398 4.92873 107.125 5.21412C106.517 5.77767 105.719 6.09081 104.89 6.09081C104.062 6.09081 103.264 5.77767 102.656 5.21412C102.106 4.63671 101.807 3.8645 101.826 3.06719C101.805 2.65935 101.87 2.25155 102.017 1.87051C102.164 1.48946 102.389 1.14375 102.679 0.856003ZM107.388 10.4719V31.2401H102.396V10.4719H107.388Z" fill="white"/>
<path d="M125.404 30.1884C125.313 29.6528 125.269 29.1104 125.273 28.5672C124.603 29.5265 123.728 30.3247 122.711 30.904C121.673 31.5018 120.322 31.8017 118.657 31.8037C116.554 31.8037 114.867 31.2779 113.598 30.2263C112.328 29.1748 111.687 27.7308 111.676 25.8945C111.628 24.6377 112.024 23.4042 112.794 22.4098C113.598 21.4463 114.619 20.6882 115.774 20.1986C117.144 19.6128 118.589 19.2196 120.068 19.0302C121.758 18.7917 123.463 18.6745 125.171 18.6797V17.3652C125.215 16.3835 124.887 15.4212 124.251 14.6721C123.637 13.9847 122.673 13.641 121.359 13.641C120.044 13.641 119.066 13.9623 118.423 14.6049C117.8 15.2021 117.438 16.0208 117.415 16.8833L112.596 16.1822C112.691 15.2222 113.015 14.2988 113.539 13.4891C114.055 12.704 114.729 12.0346 115.517 11.5232C116.367 10.9774 117.299 10.5712 118.277 10.3198C119.342 10.0381 120.439 9.89771 121.54 9.9021C122.704 9.88899 123.864 10.0515 124.981 10.3841C125.959 10.6759 126.868 11.1628 127.653 11.8153C128.406 12.4525 129.005 13.2512 129.406 14.1521C129.85 15.1895 130.066 16.3101 130.04 17.4382V28.392C130.031 28.9276 130.075 29.4628 130.171 29.9897C130.259 30.4141 130.376 30.8318 130.522 31.2399H125.696C125.545 30.9066 125.447 30.5519 125.404 30.1884ZM121.922 27.8224C122.529 27.6292 123.094 27.324 123.587 26.9227C124.07 26.5328 124.467 26.0488 124.756 25.5002C125.057 24.9031 125.208 24.2411 125.194 23.5723V21.8635C122.624 21.8635 120.55 22.141 118.972 22.696C117.395 23.251 116.606 24.2149 116.606 25.5878C116.585 25.962 116.663 26.3351 116.832 26.6695C117.002 27.0039 117.256 27.2878 117.57 27.4923C118.307 27.9417 119.161 28.1632 120.024 28.1291C120.666 28.1264 121.304 28.0229 121.914 27.8224H121.922Z" fill="white"/>
<path d="M138.343 21.4256C138.738 22.9672 139.413 24.4228 140.336 25.7195C141.174 26.8849 142.275 27.8373 143.549 28.5002C144.9 29.1768 146.396 29.5156 147.907 29.4875C150.156 29.4875 151.989 28.9033 153.407 27.7349C154.88 26.4875 156.017 24.8907 156.714 23.0906L159.167 24.0545C158.255 26.2455 156.809 28.1735 154.961 29.6628C153.179 31.0649 150.886 31.7659 148.082 31.7659C146.168 31.7946 144.272 31.3954 142.532 30.5975C140.916 29.839 139.492 28.7234 138.37 27.3348C137.185 25.8505 136.299 24.1515 135.758 22.3311C135.138 20.2463 134.835 18.08 134.859 15.9049C134.835 13.7299 135.138 11.5636 135.758 9.47877C136.295 7.65365 137.18 5.9496 138.364 4.46051C139.487 3.07188 140.91 1.95625 142.526 1.19777C144.266 0.399892 146.162 0.000708517 148.076 0.0293736C149.414 0.00818688 150.746 0.205515 152.02 0.613571C153.144 0.984614 154.201 1.53181 155.154 2.23472C156.073 2.92017 156.877 3.74855 157.534 4.68835C158.201 5.64198 158.752 6.67156 159.176 7.75538L156.722 8.71931C156.026 6.91914 154.889 5.32235 153.416 4.07494C152 2.90655 150.167 2.32235 147.916 2.32235C146.404 2.29426 144.909 2.63303 143.557 3.30964C142.284 3.97254 141.183 4.92498 140.344 6.09042C139.422 7.38711 138.747 8.84272 138.352 10.3843C137.882 12.1862 137.653 14.0427 137.672 15.9049C137.65 17.7668 137.876 19.6233 138.343 21.4256Z" fill="white"/>
<path d="M176.2 30.0337C176.092 29.4345 176.054 28.8248 176.089 28.2169C175.534 29.0932 174.621 29.9033 173.352 30.6471C172.082 31.391 170.541 31.7639 168.728 31.7659C166.712 31.7659 165.128 31.2615 163.975 30.2528C162.823 29.2441 162.245 27.8498 162.243 26.07C162.209 24.8662 162.612 23.6907 163.377 22.7605C164.193 21.8185 165.221 21.0829 166.376 20.6135C167.786 20.0296 169.267 19.6367 170.781 19.4452C172.541 19.2143 174.314 19.105 176.089 19.118V17.5407C176.136 16.1928 175.701 14.8722 174.862 13.8164C174.044 12.8233 172.73 12.3267 170.919 12.3267C169.224 12.3267 167.959 12.7434 167.121 13.5769C166.283 14.4414 165.783 15.5788 165.713 16.7812L163.041 16.3869C163.135 15.4331 163.442 14.5127 163.94 13.6937C164.408 12.9342 165.018 12.2717 165.737 11.7425C166.472 11.2128 167.294 10.8172 168.167 10.5741C169.093 10.3084 170.052 10.1756 171.015 10.1798C173.469 10.1798 175.359 10.837 176.687 12.1514C178.016 13.4659 178.681 15.1747 178.683 17.2778V28.1439C178.677 28.7375 178.72 29.3306 178.814 29.9169C178.887 30.3732 179.004 30.8213 179.164 31.2547H176.579C176.392 30.8693 176.264 30.4576 176.2 30.0337ZM171.818 29.2246C172.633 28.9422 173.384 28.5025 174.029 27.9306C174.672 27.3633 175.188 26.6665 175.542 25.8859C175.922 25.009 176.108 24.0605 176.089 23.1052V21.1627C174.58 21.1551 173.073 21.2429 171.576 21.4256C170.362 21.5615 169.17 21.848 168.027 22.2785C167.156 22.5923 166.37 23.102 165.728 23.7682C165.189 24.361 164.899 25.1378 164.916 25.9385C164.895 26.4499 164.989 26.9596 165.191 27.4298C165.393 27.9 165.698 28.3188 166.084 28.655C166.863 29.3269 167.907 29.6628 169.216 29.6628C170.102 29.6651 170.982 29.517 171.818 29.2246Z" fill="white"/>
<path d="M203.395 25.4129C202.969 26.6543 202.315 27.8054 201.467 28.8071C200.673 29.7382 199.686 30.4857 198.575 30.9978C197.429 31.5184 196.182 31.7807 194.924 31.7661C193.171 31.7661 191.725 31.3931 190.586 30.6473C189.551 30.006 188.669 29.1467 188.001 28.1294V40.0032H185.372V10.6911H187.782V14.1087C188.066 13.582 188.42 13.0958 188.833 12.6628C189.809 11.6356 191.041 10.8875 192.403 10.4954C193.194 10.2695 194.013 10.1584 194.836 10.1653C196.106 10.157 197.363 10.4209 198.522 10.9394C199.646 11.4448 200.644 12.193 201.443 13.1302C202.295 14.1383 202.949 15.2977 203.371 16.5477C203.855 17.9792 204.092 19.4825 204.072 20.9934C204.1 22.4945 203.871 23.9893 203.395 25.4129ZM200.909 17.5701C200.634 16.584 200.182 15.6564 199.574 14.8331C199.014 14.0803 198.296 13.4591 197.471 13.0133C196.606 12.5636 195.642 12.3377 194.667 12.3561C193.84 12.3579 193.021 12.5217 192.257 12.8381C191.463 13.1622 190.741 13.6385 190.13 14.2401C189.436 14.9248 188.889 15.7446 188.524 16.6489C188.158 17.5533 187.983 18.5229 188.007 19.4979V22.4189C187.983 23.3939 188.158 24.3635 188.524 25.2679C188.889 26.1722 189.436 26.992 190.13 27.6767C190.746 28.2819 191.476 28.7585 192.277 29.0787C193.036 29.391 193.847 29.5546 194.667 29.5607C195.642 29.5791 196.606 29.3531 197.471 28.9035C198.296 28.4577 199.014 27.8365 199.574 27.0837C200.179 26.2662 200.631 25.3458 200.909 24.3672C201.225 23.2639 201.381 22.1207 201.37 20.973C201.378 19.8226 201.223 18.6768 200.909 17.5701Z" fill="white"/>
<path d="M209.528 0.636802C209.78 0.377364 210.104 0.19974 210.458 0.127071C210.812 0.0544026 211.179 0.0900582 211.513 0.229393C211.847 0.368728 212.13 0.605283 212.327 0.908238C212.525 1.21119 212.626 1.5665 212.618 1.92788C212.624 2.15971 212.582 2.39022 212.495 2.60522C212.408 2.82021 212.278 3.01516 212.113 3.17806C211.76 3.50135 211.299 3.68068 210.82 3.68068C210.342 3.68068 209.881 3.50135 209.528 3.17806C209.363 3.01502 209.234 2.81998 209.147 2.60497C209.061 2.38995 209.019 2.15952 209.026 1.92788C209.017 1.68983 209.057 1.45257 209.144 1.23059C209.23 1.00861 209.361 0.806567 209.528 0.636802ZM212.157 10.6908V31.24H209.528V10.6908H212.157Z" fill="white"/>
<path d="M226.496 31.503C225.83 31.6838 225.142 31.7723 224.452 31.7659C222.962 31.7659 221.844 31.357 221.098 30.5391C220.353 29.7212 219.981 28.5674 219.983 27.0777V12.7649H216.442V10.691H219.991V4.73219L222.62 3.50537V10.691H227.484V12.7503H222.62V26.7272C222.582 27.4465 222.766 28.1601 223.146 28.7719C223.497 29.2685 224.052 29.5168 224.811 29.5168C225.185 29.5122 225.555 29.445 225.906 29.3181C226.278 29.193 226.621 28.9943 226.914 28.7339L227.922 30.837C227.496 31.1527 227.012 31.3793 226.496 31.503Z" fill="white"/>
<path d="M244.548 30.0337C244.441 29.4344 244.404 28.8248 244.437 28.2169C243.882 29.0932 242.97 29.9033 241.7 30.6471C240.43 31.391 238.89 31.7639 237.079 31.7659C235.064 31.7659 233.478 31.2615 232.324 30.2528C231.169 29.2441 230.593 27.8498 230.594 26.07C230.555 24.8684 230.952 23.693 231.71 22.7605C232.528 21.8185 233.557 21.0829 234.713 20.6136C236.122 20.0296 237.602 19.6366 239.115 19.4452C240.879 19.2136 242.658 19.1043 244.437 19.118V17.5407C244.485 16.1928 244.05 14.8722 243.21 13.8164C242.392 12.8233 241.079 12.3267 239.27 12.3267C237.576 12.3267 236.31 12.7434 235.473 13.5769C234.634 14.4413 234.134 15.5787 234.065 16.7812L231.392 16.3869C231.485 15.4333 231.792 14.5129 232.289 13.6937C232.751 12.936 233.354 12.2737 234.065 11.7425C234.8 11.2128 235.624 10.8172 236.498 10.5741C237.424 10.3082 238.383 10.1754 239.346 10.1798C241.795 10.1798 243.686 10.837 245.018 12.1515C246.35 13.4659 247.014 15.1747 247.01 17.2778V28.1439C247.004 28.7375 247.048 29.3306 247.142 29.9169C247.215 30.3732 247.332 30.8213 247.492 31.2547H244.907C244.727 30.8682 244.606 30.4565 244.548 30.0337ZM240.167 29.2246C240.981 28.9422 241.732 28.5025 242.378 27.9306C243.021 27.3641 243.537 26.6671 243.891 25.8859C244.27 25.009 244.457 24.0606 244.437 23.1052V21.1627C242.93 21.1551 241.423 21.2429 239.927 21.4256C238.713 21.5615 237.521 21.848 236.378 22.2785C235.507 22.5923 234.719 23.102 234.076 23.7682C233.539 24.3613 233.249 25.1382 233.267 25.9385C233.246 26.45 233.339 26.9597 233.542 27.4299C233.744 27.9002 234.049 28.3189 234.436 28.655C235.214 29.3269 236.259 29.6628 237.57 29.6628C238.454 29.6648 239.332 29.5167 240.167 29.2246Z" fill="white"/>
<path d="M256.354 0.569336V31.2397H253.726V0.569336H256.354Z" fill="white"/>
</g>
<defs>
<clipPath id="clip0">
<rect width="256.355" height="40" fill="white"/>
</clipPath>
</defs>
</svg>
