<svg version="1.2" xmlns="http://www.w3.org/2000/svg" viewBox="0 0 1123 294" width="172" height="45">
	<title>Harvard_University_logo-svg</title>
	<defs>
		<clipPath clipPathUnits="userSpaceOnUse" id="cp1">
			<path d="m0 0h1122.52v293.66h-1122.52z" />
		</clipPath>
	</defs>
	<style>
		.s0 { fill: #ffffff } 
		.s1 { fill: none;stroke: #12110c;stroke-width: .3 } 
		.s2 { fill: #12110c } 
		.s3 { fill: none;stroke: #12110c;stroke-width: 0 } 
		.s4 { fill: #ffffff;stroke: #12110c;stroke-width: 0 } 
		.s5 { fill: #000000 } 
	</style>
	<g id="g10">
		<g id="g12">
			<g id="Clip-Path: g14" clip-path="url(#cp1)">
				<g id="g14">
					<g id="g20">
						<path id="path22" class="s0" d="m459.2 198.9c0-2.3-1.5-4-4.5-4.6v-1.5c1.7 0 7.2 0.2 8.8 0.2c1.4 0 6.8-0.2 8.4-0.2v1.5c-2.8 0.5-4.2 2.2-4.2 4.6v28.7c0 9.2 5 14.3 15.4 14.3c9 0 16.1-4 16.1-13.6v-29.5c0-2.2-1.4-3.9-4.8-4.5v-1.5c1.3 0 5.9 0.2 7.4 0.2c1.4 0 6.2-0.2 7.5-0.2v1.5c-3.3 0.7-4.8 2.2-4.8 4.5v27.9c0 12.6-7.3 19.8-23 19.8c-14.7 0-22.3-6.7-22.3-18.5z" />
					</g>
					<g id="g24">
						<path id="path26" class="s0" d="m522.1 244.2c3.5-0.6 4.8-2.3 4.8-4.4v-39.8c0-3.4-1.8-4.9-4.8-5.7v-1.5c1.7 0.1 4.6 0.2 6.1 0.2c1.3 0 3.4 0 4.8-0.2l34.5 40.6v-34.6c0-2.2-1.3-3.9-4.7-4.5v-1.5c1.2 0 5.7 0.2 7.3 0.2c1.3 0 6.1-0.2 7.3-0.2v1.5c-3.2 0.7-4.8 2.2-4.8 4.5v47.7h-2.1c-1.3-0.3-3.8-1.7-7.6-5.8l-30.8-36v35.1c0 2.1 1.2 3.8 4.6 4.4v1.5c-1.3 0-5.7-0.2-7.3-0.2c-1.3 0-6 0.2-7.3 0.2z" />
					</g>
					<g id="g28">
						<path id="path30" class="s0" d="m794.4 233.5h1.4c0.8 3 2.5 5.7 4.9 7.3c2.4 1.7 6.3 2.6 9.5 2.6c6.9 0 11.3-3.5 11.3-8.9c0-5.7-5.6-8.6-12.4-12c-5-2.5-14.9-6.6-14.9-16.2c0-8.8 6.8-14.4 17.7-14.4c7.1 0 10.5 1.8 15.3 1.6l-0.1 10.7h-1.5c-1.9-6.3-7.7-8.5-14-8.5c-7.1 0-9.7 4-9.7 8.1c0 5.9 5.8 8.9 12.3 11.8c7.3 3.2 15.3 7.4 15.3 16.6c0 8.7-6.8 15-19.3 15c-7.4 0-11.8-2.2-15.7-2.6z" />
					</g>
					<g id="g32">
						<path id="path34" class="s0" d="m942.6 223.8l-14.1-22.5c-2.3-4-4.2-6-6.9-7v-1.5c2 0 7.2 0.2 8.6 0.2c1.4 0 7-0.2 9-0.2v1.5c-1.8 0.3-2.6 1.2-2.6 2.5c0 1.2 0.8 2.8 1.6 4.1c0.8 1.3 10.4 17.2 10.4 17.2l9.9-17.2c1-1.7 1.8-3.4 1.8-4.5c0-1.1-0.8-1.9-2.5-2.1v-1.5c1.7 0 5.3 0.2 6.4 0.2c1.1 0 5.2-0.2 6.9-0.2v1.4c-3.8 1.5-6.2 4.9-8.6 8.8l-12.7 21.3m0.8-2.6v18c0 1.7 1.4 4 4.5 4.5v1.5c-1.7 0-7.3-0.2-9-0.2c-1.3 0-6.7 0.2-8.6 0.2v-1.5c3.1-0.5 4.5-2.8 4.5-4.5v-17.3" />
					</g>
					<g id="g36">
						<path id="path38" class="s0" d="m681.6 192.8h32.9c1.1 0 2.8-0.1 3.9-0.6h1.4l-0.2 10.7h-1.5c-1.2-3.3-2.5-6-8.9-6h-14.3v18.6h11c1.6 0 3.6-0.1 4.4-0.3c2.5-0.5 3.6-1.9 4.1-4h1.5c-0.1 1.6-0.1 5.3-0.1 6.3c0 1.1 0.1 5 0.1 6.8h-1.5c-0.7-2.1-1.7-3.7-4.1-4.3c-0.8-0.3-2.8-0.4-4.4-0.4h-11v21.8h15.6c6.8 0 8.7-2.8 10.4-6.8l1.5 0.3l-1.5 11c-5-0.4-8.1-0.4-13.8-0.4h-16.4c-1.6 0-7.4 0.2-9.1 0.2v-1.4c3-0.6 4.7-2.1 4.7-4.9v-40.5c0-2.5-1.4-4.1-4.7-4.6z" />
					</g>
					<g id="g40">
						<path id="path42" class="s0" d="m597.5 199.2c0-2.7-1.6-4.2-4.8-4.9v-1.4c1.8 0 7.5 0.2 9.1 0.2c1.4 0 7.3-0.2 9.1-0.2v1.4c-3.2 0.7-4.8 2.1-4.8 4.9v40.2c0 2.7 1.6 4.2 4.8 4.8v1.5c-1.8 0-7.4-0.2-9.1-0.2c-1.4 0-7.3 0.2-9.1 0.2v-1.5c3.2-0.6 4.8-2 4.8-4.8z" />
					</g>
					<g id="g44">
						<path id="path46" class="s0" d="m847.3 199.2c0-2.7-1.6-4.2-4.8-4.9v-1.4c1.8 0 7.5 0.2 9.2 0.2c1.4 0 7.3-0.2 9-0.2v1.4c-3.1 0.7-4.8 2.1-4.8 4.9v40.2c0 2.7 1.7 4.2 4.8 4.8v1.5c-1.7 0-7.4-0.2-9-0.2c-1.4 0-7.4 0.2-9.2 0.2v-1.5c3.3-0.6 4.8-2 4.8-4.8z" />
					</g>
					<g id="g48">
						<path id="path50" class="s0" d="m917.7 192.5v10.9h-1.4c-1.4-4.8-4-6-7.6-6h-11.2v42c0 2.7 1.6 4.2 4.8 4.8v1.5c-1.8 0-7.4-0.2-9.1-0.2c-1.4 0-7.4 0.2-9.2 0.2v-1.5c3.3-0.6 4.8-2 4.8-4.8v-42h-11.3c-3.5 0-6.2 1.1-7.5 6h-1.5v-10.9c3.7 0.2 6.6 0.5 24.6 0.5c18.1 0 21-0.3 24.6-0.5z" />
					</g>
					<g id="g52">
						<path id="path54" fill-rule="evenodd" class="s0" d="m749 239.4c0 2.7 1.8 4.2 5 4.8v1.5c-1.8 0-7.6-0.2-9.2-0.2c-1.4 0-7.1 0.2-8.9 0.2v-1.5c3-0.5 4.7-2 4.7-4.8v-40.6c0-2.5-1.3-4.1-4.7-4.6v-1.5c1.8 0 7.4 0.2 9 0.2c2.6 0 9.9-0.4 12.8-0.4c12.7 0 19.7 5.2 19.7 14.2c0 7-5.2 11.8-13.3 13.8c0 0 1.8 1 3.7 3.2c2.2 2.6 8.2 11.3 10.7 14.3c2.5 3 5.7 6.4 9.1 6.5v1.2c-1.6 0.4-4.2 0.7-6.2 0.7c-4.3 0-7.8-1.5-11.1-5.5c-2.9-3.6-7.8-10.8-10.7-14.5c-1.8-2.4-4-4.2-8.1-4.9c-0.8-0.1-1.6-0.2-2.5-0.3zm0-21.6c1.7 0.2 4.2 0.4 6.7 0.4c9.9 0 13-5.7 13-10.8c0-7.1-4.8-11.5-13.4-11.5c-1.8 0-4.4 0.2-6.3 0.5z" />
					</g>
					<g id="g56">
						<path id="path58" class="s0" d="m623.6 199.4c-1.2-2.6-2.9-4.4-6-5.1v-1.5c1.9 0 8.4 0.2 9.9 0.2c1.3 0 7-0.2 8.9-0.2v1.4c-1.7 0.4-3.7 1.3-3.7 3.1c0 1.2 0.8 2.9 2.2 6.2l13.7 31l12.9-31.1c1-2.5 1.7-4.5 1.7-5.9c0-1.7-1.5-2.8-3.6-3.3v-1.4c1.7 0 5.9 0.2 7.2 0.2c1.2 0 6.1-0.2 8-0.2v1.5c-3.2 0.9-5.2 2.6-7 6.8l-19 44.8h-4.3z" />
					</g>
					<g id="g60">
						<path id="path62" class="s0" d="m672.3 58.2c-2.2-4.9-5.6-8.4-11.3-9.7v-2.8c3.6 0 15.4 0.4 18.1 0.4c2.5 0 13.9-0.4 17.5-0.4v2.7c-3.2 0.7-6.9 2.5-6.9 5.8c0 2.3 1.4 5.6 4.1 11.7l25.9 58.8l24.5-58.9c1.9-4.8 3.3-8.4 3.3-11.3c0-3.1-2.9-5.2-6.9-6.1v-2.7c3.2 0 11.1 0.4 13.6 0.4c2.2 0 11.6-0.4 15.1-0.4v2.7c-6.1 1.6-9.8 5.1-13.2 13.1l-36 84.8h-8.1z" />
					</g>
					<g id="g64">
						<path id="path66" class="s0" d="m324.1 143.1c4.7-1.1 8-3.2 8-8.5v-77.8c0-5.1-3.1-7.3-8-8.5v-2.8c2.4 0 13.1 0.4 15.6 0.4c3 0 14.2-0.4 16.6-0.4v2.8c-4.7 1-8.2 3.2-8.2 8.5v32.5h58v-32.5c0-5.3-3.1-7.5-8-8.5v-2.8c2.5 0 13.4 0.4 16.4 0.4c2.5 0 13.4-0.4 15.8-0.4v2.8c-4.7 1-8.1 3.2-8.1 8.5v77.8c0 5.1 3.2 7.2 8.1 8.5v2.6c-2.4 0-13.3-0.2-15.8-0.2c-3 0-13.9 0.2-16.4 0.2v-2.6c4.7-1.1 8-3.2 8-8.5v-36.8h-58v36.8c0 5.3 3.3 7.2 8.2 8.5v2.6c-2.4 0-13.6-0.2-16.6-0.2c-2.5 0-13.2 0.2-15.6 0.2z" />
					</g>
					<g id="g68">
						<path id="path70" fill-rule="evenodd" class="s0" d="m994.6 143.1c6-1.1 9.4-3.4 9.4-8.9v-77.4c0-5.4-3.3-7.5-9.1-8.5v-2.8c3.3 0 14.2 0.4 17.2 0.4c4.9 0 18.5-1.1 29.1-1.1c35.7 0 57.3 20 57.3 50.2c0 29.5-22.5 51.3-59.3 51.3c-10.6 0-23.2-0.8-28.1-0.8c-3 0-13.1 0.4-16.5 0.4zm25.4-5.2c3.6 0.7 10.4 1.1 15.6 1.1c30 0 45.6-18 45.6-43.2c0-26-16.5-44.4-44.5-44.4c-5.7 0-12.8 0.5-16.7 1.1z" />
					</g>
					<g id="g72">
						<path id="path74" fill-rule="evenodd" class="s0" d="m591 133.9c0 5.1 3.2 7.9 9.2 9.2v2.8c-3.3 0-14.2-0.4-17.4-0.4c-2.6 0-13.3 0.4-16.6 0.4v-2.8c5.5-1.1 8.8-3.8 8.8-9.2v-76.9c0-4.7-2.5-7.7-8.8-8.7v-2.8c3.3 0 13.9 0.4 16.9 0.4c4.9 0 18.8-0.8 24.2-0.8c24 0 37.4 9.9 37.4 26.9c0 13.4-10 22.4-25.3 26.1c0 0 3.5 2 7 6.1c4.2 4.9 15.9 21.6 20.6 27.4c4.7 5.7 10.8 12.1 17.3 12.4v2.3c-3.1 0.6-8.1 1.2-11.9 1.2c-8.2 0-14.7-2.9-21-10.5c-5.4-6.6-14.9-20.8-20.4-27.7c-3.5-4.5-7.7-7.9-15.4-9.2c-1.5-0.3-3-0.5-4.6-0.7zm0-40.8c3.1 0.4 7.8 0.7 12.5 0.7c18.7 0 24.6-10.8 24.6-20.4c0-13.5-9-21.9-25.4-21.9c-3.4 0-8.3 0.5-11.7 1.1z" />
					</g>
					<g id="g76">
						<path id="path78" fill-rule="evenodd" class="s0" d="m907.1 133.9c0 5.1 3.2 7.9 9.3 9.2v2.8c-3.4 0-14.3-0.4-17.4-0.4c-2.7 0-13.4 0.4-16.7 0.4v-2.8c5.5-1.1 8.8-3.8 8.8-9.2v-76.9c0-4.7-2.6-7.7-8.8-8.7v-2.8c3.3 0 13.9 0.4 16.9 0.4c4.9 0 18.8-0.8 24.2-0.8c24.1 0 37.4 9.9 37.4 26.9c0 13.4-10 22.4-25.3 26.1c0 0 3.5 2 7 6.1c4.2 4.9 15.9 21.6 20.6 27.4c4.8 5.7 10.8 12.1 17.3 12.4v2.3c-3.1 0.6-8.1 1.2-11.9 1.2c-8.1 0-14.7-2.9-21-10.5c-5.4-6.6-14.9-20.8-20.4-27.7c-3.5-4.5-7.7-7.9-15.4-9.2c-1.5-0.3-2.9-0.5-4.6-0.7zm0-40.8c3.2 0.4 7.8 0.7 12.5 0.7c18.8 0 24.6-10.8 24.6-20.4c0-13.5-9-21.9-25.4-21.9c-3.4 0-8.3 0.5-11.7 1.1z" />
					</g>
					<g id="g80">
						<path id="path82" fill-rule="evenodd" class="s0" d="m445.6 143.1c6.3-1.5 9.8-5.6 12.1-11.1l32.1-77.2c1.4-3.2 3-9.8 3-9.8h9c0 0 1.6 6.6 2.9 9.8l34 77.4c2.4 5.4 5 9.2 11.7 10.9v2.6c-3.6 0-15.1-0.2-17.7-0.2c-2.5 0-13.5 0.2-17.1 0.2v-2.6c4.9-1.2 6.5-3.7 6.5-6.2c0-2-0.9-4.4-1.9-6.8l-7.3-16.6h-37.4l-6.7 16.7c-0.7 1.9-1.6 4.6-1.6 6.4c0 2.8 1.5 5 7.1 6.5v2.6c-3.4 0-12.1-0.2-14.2-0.2l-14.5 0.2zm63.9-37.5l-15.9-37.2l-14.9 37.2z" />
					</g>
					<g id="g84">
						<path id="path86" fill-rule="evenodd" class="s0" d="m763.7 143.1c6.3-1.5 9.8-5.6 12.1-11.1l32.1-77.2c1.4-3.2 3-9.8 3-9.8h9c0 0 1.6 6.6 2.9 9.8l34 77.4c2.4 5.4 5 9.2 11.7 10.9v2.6c-3.7 0-15.1-0.2-17.7-0.2c-2.6 0-13.5 0.2-17.1 0.2v-2.6c4.9-1.2 6.5-3.7 6.5-6.2c0-2-0.9-4.4-1.9-6.8l-7.3-16.6h-37.4l-6.7 16.7c-0.7 1.9-1.6 4.6-1.6 6.4c0 2.8 1.4 5 7 6.5v2.6c-3.3 0-12-0.2-14.1-0.2l-14.5 0.2zm63.9-37.5l-16-37.2l-14.8 37.2z" />
					</g>
					<g id="g88">
						<path id="path90" class="s0" d="m27.6 14.3h223.9v84.5c0 38.8-14.4 120.9-111.1 182.1c0 0-104.7-43.8-112.8-182.1z" />
					</g>
					<g id="g92">
						<path id="path94" class="s1" d="m27.2 14h224.1v84.7c0 38.7-14.5 120.9-111.2 182.1c0 0-104.9-43.8-112.9-182.1z" />
					</g>
					<g id="g96">
						<path id="path98" class="s0" d="m197.1 122.9c0 0-2 6.4-10.9-0.2l-30.5-0.7c0 0-4 1.3-4.5-2.9c0 0 0.7-8.3 0.4-9.1c0 0 0.1-2.3-3.9-2.3c0 0-6.1 0.7-6.3-4.7c0 0-1.1-5.8 7.4-5.6c0 0 2.8 1.2 2.9-2.2c0 0-0.3-23.6-0.1-25.4c0 0 0.7-2.2-3.5-2.6c0 0-6 1.3-6.7-2.7c0 0-0.4-6 3.6-6.3c0 0 4.9 0.3 5.8-0.9c0 0 1.1 0.7 0.9-3.7l0.2-7.4c0 0 0.6-2 3.6-1.8c0 0 5.7 0.4 6.4-0.2c0 0 1.3-1.6 1.6-2.4c0 0 2.9-0.1 3.5 0.6c0 0 4.3 2.9 20.8 1.8c0 0 2.6 0 3.1 0.7c0 0 3.1 2.4 4.9-0.1c0 0 2.7-0.6 10.9-0.4c0 0 8.9 2.3 15.1-2.7l2 0.3c0 0 2.5 4.2 4.3 2.9c0 0 5.4-0.5 6.3 0.6c0 0 1.9 2.7 1 9.8c0 0-1.1 3.1 4.1 3.1c0 0 6-1.1 5.3 4.5c0 0 1.6 6.3-8.3 5.4c0 0-1.3 1.8-1.1 3.1c0 0-0.2 20.7-0.4 23.1c0 0-0.2 3.2 4.2 3c0 0 5.8-0.3 6 4.9c0 0 0.7 6.9-7.7 5.6c0 0-2.5 0.4-2.9 2l-0.3 9.1c0 0 0.1 4.6-4.9 3.5c-0.7 0-28.3 0.5-30.7-0.2c0 0-1.3-0.2-1.6 0.5z" />
					</g>
					<g id="g100">
						<path id="path102" class="s0" d="m138.5 153.2c0 0 1.3-0.5 1.6-1.4c0 0 3.8-0.4 4.4-0.9l12 0.9c0 0 11.7 0.9 16.8-2.7c0 0 1.8 0 3.1 0.5c0 0 2.5 0.6 3.3 1.6l6.9-0.1c0 0 4 1.2 3.6 3.8v3.2c0 0-0.7 6.6 1.1 6.9h5.2c0 0 4.4 2 3.9 4.6c0 0 0.1 3.6-3.7 4.3c0 0-3.8 1.1-5 0.9c0 0-1.3 1.7-1.5 3.7l-0.5 23.7c0 0-0.4 2.6 3.4 2.2c0 0 5.6-0.6 7.3 2.5c0 0 1.4 5.3-1.5 6.2l-2.2 1.1l-4.7 0.7c0 0-2 0.2-2.2 3.6v6.4c0 0 0.2 4.3-3.2 4.3l-5.1 0.4c0 0-1.3 1.1-3.8 0.4c0 0-30.9 0.5-31.9 0.2l-3.7 0.7c0 0-4 3.6-7.2 0.9l-2.6-2c0 0-1.8 0.4-2.5 0.2c-0.7-0.2-34.1 0.3-34.1 0.3c0 0-7.1 0.8-7.6-1.6c0 0-0.9-9.2-0.6-10.4c0 0 0-2.7-1.6-2.8c0 0-7.1-0.4-7.3-1.1c0 0-3.8-2.7-2.7-5.5c0 0 1.3-3.6 5.1-4c0 0 5.8 1 5.8-0.7c0 0 0.4-1.1 0.4-2.9c0 0 0.3-21.6 0.2-23c0 0 0.5-2.7-1.9-2.7c0 0-2.5 0.7-4.1-0.4c0 0-4.4 0.2-5.3-3.3c0 0-0.7-2.1 0.4-4c0 0 2-4 7.8-2.7c0 0 3.2 0.9 3.6-1.4l-0.2-8.7c0 0-0.7-2.4 3.8-3.7c0 0 5.8 1.7 7.6-1.2c0 0 2-4 3.7-1.3c0 0 3.4 3.3 12.8 2.9c0 0 16.4-1.3 16.7-0.6c0 0 4 0.6 5.1 1.9z" />
					</g>
					<g id="g104">
						<path id="path106" class="s0" d="m89.2 122.9c0 0-2 6.4-10.9-0.2l-30.5-0.7c0 0-4 1.3-4.5-2.9c0 0 0.7-8.3 0.3-9.1c0 0 0.2-2.3-3.8-2.3c0 0-6.1 0.7-6.3-4.7c0 0-1.1-5.8 7.4-5.6c0 0 2.7 1.2 2.9-2.2c0 0-0.3-23.6-0.2-25.4c0 0 0.8-2.2-3.4-2.6c0 0-6 1.3-6.7-2.7c0 0-0.4-6 3.6-6.3c0 0 4.9 0.3 5.8-0.9c0 0 1.1 0.7 0.9-3.7l0.2-7.4c0 0 0.6-2 3.6-1.8c0 0 5.7 0.3 6.4-0.2c0 0 1.3-1.6 1.6-2.4c0 0 2.9-0.1 3.5 0.6c0 0 4.3 2.9 20.8 1.8c0 0 2.6 0 3.1 0.7c0 0 3.1 2.4 4.9-0.2c0 0 2.7-0.5 10.9-0.3c0 0 8.9 2.3 15-2.7l2 0.3c0 0 2.6 4.2 4.4 2.9c0 0 5.4-0.5 6.3 0.6c0 0 1.9 2.7 0.9 9.8c0 0-1 3.1 4.2 3.1c0 0 6-1.1 5.3 4.5c0 0 1.6 6.3-8.4 5.4c0 0-1.2 1.9-1.1 3.1c0 0-0.1 20.7-0.3 23.1c0 0-0.2 3.2 4.2 3c0 0 5.8-0.3 5.9 4.9c0 0 0.8 6.9-7.6 5.6c0 0-2.5 0.4-2.9 2l-0.3 9.1c0 0 0.1 4.6-4.9 3.5c-0.8 0-28.3 0.5-30.7-0.2c0 0-1.3-0.2-1.6 0.5z" />
					</g>
					<g id="g108">
						<path id="path110" class="s2" d="m197.1 122.9c0 0-2 6.4-10.9-0.2l-30.5-0.7c0 0-4 1.3-4.5-2.9c0 0 0.7-8.3 0.4-9.1c0 0 0.1-2.3-3.9-2.3c0 0-6.1 0.7-6.3-4.7c0 0-1.1-5.8 7.4-5.6c0 0 2.8 1.2 2.9-2.2c0 0-0.3-23.6-0.1-25.4c0 0 0.7-2.2-3.5-2.6c0 0-6 1.3-6.7-2.7c0 0-0.4-6 3.6-6.3c0 0 4.9 0.3 5.8-0.9c0 0 1.1 0.7 0.9-3.7l0.2-7.4c0 0 0.6-2 3.6-1.8c0 0 5.7 0.4 6.4-0.2c0 0 1.3-1.6 1.6-2.4c0 0 2.9-0.1 3.5 0.6c0 0 4.3 2.9 20.8 1.8c0 0 2.6 0 3.1 0.7c0 0 3.1 2.4 4.9-0.1c0 0 2.7-0.6 10.9-0.4c0 0 8.9 2.3 15.1-2.7l2 0.3c0 0 2.5 4.2 4.3 2.9c0 0 5.4-0.5 6.3 0.6c0 0 1.9 2.7 1 9.8c0 0-1.1 3.1 4.1 3.1c0 0 6-1.1 5.3 4.5c0 0 1.6 6.3-8.3 5.4c0 0-1.3 1.8-1.1 3.1c0 0-0.2 20.7-0.4 23.1c0 0-0.2 3.2 4.2 3c0 0 5.8-0.3 6 4.9c0 0 0.7 6.9-7.7 5.6c0 0-2.5 0.4-2.9 2l-0.3 9.1c0 0 0.1 4.6-4.9 3.5c-0.7 0-28.3 0.5-30.7-0.2c0 0-1.3-0.2-1.6 0.5z" />
					</g>
					<g id="g112">
						<path id="path114" class="s3" d="m197.1 122.9c0 0-2 6.4-10.9-0.1l-30.5-0.8c0 0-4 1.3-4.5-2.9c0 0 0.7-8.3 0.4-9.1c0 0 0.1-2.3-3.9-2.3c0 0-6.1 0.7-6.3-4.7c0 0-1.1-5.8 7.4-5.6c0 0 2.8 1.2 2.9-2.2c0 0-0.3-23.6-0.1-25.4c0 0 0.7-2.2-3.5-2.6c0 0-6 1.3-6.7-2.7c0 0-0.4-6 3.6-6.3c0 0 4.9 0.3 5.8-0.9c0 0 1.1 0.7 0.9-3.7l0.2-7.4c0 0 0.6-2 3.7-1.8c0 0 5.6 0.4 6.3-0.2c0 0 1.3-1.6 1.6-2.4c0 0 2.9-0.1 3.5 0.6c0 0 4.3 2.9 20.8 1.8c0 0 2.6 0 3.1 0.7c0 0 3.1 2.4 4.9-0.1c0 0 2.7-0.6 10.9-0.4c0 0 8.9 2.3 15.1-2.7l2 0.3c0 0 2.5 4.2 4.3 2.9c0 0 5.4-0.5 6.3 0.6c0 0 1.9 2.7 1 9.8c0 0-1.1 3.1 4.1 3.1c0 0 6-1.1 5.3 4.5c0 0 1.6 6.3-8.3 5.4c0 0-1.3 1.8-1.1 3.1c0 0-0.2 20.7-0.4 23.1c0 0-0.2 3.2 4.2 3c0 0 5.8-0.3 6 4.9c0 0 0.7 6.9-7.7 5.6c0 0-2.5 0.4-2.9 2l-0.3 9.1c0 0 0.1 4.6-4.9 3.5c-0.7 0-28.3 0.5-30.7-0.2c0 0-1.3-0.2-1.6 0.5z" />
					</g>
					<g id="g116">
						<path id="path118" class="s0" d="m162.8 48.2c0 0 0.4 3.6 0.4 4.5c0 0.9-0.6 52.5-0.6 52.5c0 0 0.6 3.9-2.9 5.9c0 0-0.9 0.4-1.1-2.1l0.4-54.4c0 0 0.4-6.8 3.8-6.4z" />
					</g>
					<g id="g120">
						<path id="path122" class="s3" d="m162.8 48.2c0 0 0.4 3.6 0.4 4.5c0 0.9-0.6 52.5-0.6 52.5c0 0 0.6 3.9-2.9 5.9c0 0-0.9 0.4-1.1-2.1l0.4-54.4c0 0 0.4-6.8 3.8-6.4z" />
					</g>
					<g id="g124">
						<path id="path126" class="s0" d="m161 116l23.6 0.4c2.1 0 2.3 1.4 2.3 1.4c0 1.9-1.4 1.7-1.4 1.7h-28.3c-3.6-0.2-3.3-2.9-3.3-2.9v-6.9c0.2-3.7-3.6-4.4-3.6-4.4c-5.3 1.1-6.5-2.1-6.5-2.1c-0.2-3.9 6-3.5 6-3.5c5 0 3.6-4.5 3.6-4.5l0.3-27.4c-0.3-2.7-6.9-2.7-6.9-2.7c-4.1 0.7-3-3.3-3-3.3c2-2 6.3-1.8 6.3-1.8c3.8 0.2 3.8-4 3.8-4l0.2-7.4c4.2-3.8 4.9-0.8 4.9-0.8c-2.4 3.7-1.8 12.6-1.8 12.6c0 0-0.4-1.7-0.2-0.8c0.2 0.9-0.2 52.1-0.2 52.1c0.4 5.6 4.2 4.3 4.2 4.3z" />
					</g>
					<g id="g128">
						<path id="path130" class="s0" d="m165.7 109.3c0.7 0.1 4.2 1 4.2 1c1.4 0.4 18.1 0.2 18.1 0.2c5.3 2.9 0 4.2 0 4.2l-5.1-1.1h-18.6c-2.8 0.5-2-2-2-2c1.6-3.1 3.4-2.3 3.4-2.3z" />
					</g>
					<g id="g132">
						<path id="path134" class="s3" d="m165.7 109.2c0.7 0.2 4.2 1.1 4.2 1.1c1.4 0.4 18.1 0.2 18.1 0.2c5.3 2.9 0 4.2 0 4.2l-5.1-1.1h-18.6c-2.8 0.5-2-2-2-2c1.6-3.1 3.4-2.4 3.4-2.4z" />
					</g>
					<g id="g136">
						<path id="path138" class="s0" d="m196.9 118c0.4 3.6-2.9 4.1-2.9 4.1c-3.6 0-4-3.4-4-3.4c-0.2-4.6 3.3-4.6 3.3-4.6c1.6-0.7 3.6 3.9 3.6 3.9z" />
					</g>
					<g id="g140">
						<path id="path142" class="s0" d="m195.8 112.3c0 0 1.7-1.8 2.7-1.8c0 0 18.2 1.6 21.2-0.5c0 0 2.8-0.6 3.5 0c0 0 2.7 2.1 2.7 3.4c0 0-0.2 1.7-3.4 0.7c0 0-20.5 0.2-21.6 0.2c0 0-5.6 1.3-5.1-2z" />
					</g>
					<g id="g144">
						<path id="path146" class="s3" d="m195.8 112.3c0 0 1.6-1.8 2.7-1.8c0 0 18.2 1.6 21.3-0.5c0 0 2.7-0.6 3.4 0c0 0 2.7 2.1 2.7 3.4c0 0-0.1 1.7-3.4 0.7c0 0-20.5 0.2-21.6 0.2c0 0-5.6 1.3-5.1-2z" />
					</g>
					<g id="g148">
						<path id="path150" class="s0" d="m198.2 118.2c0 0 0-1.5 2.5-1.5l25.4-0.1c0 0 2.4 1.2 2.4-3.1c0 0 0.9-19.8 1-41.5c0-6.5 0.3-13.3 0.1-19.6c0 0-0.6-2.7-1.3-3.3c0 0 0-2.9 3.1-1.8c0 0 2.7 0.2 2 4.4l0.2 6.3c0 0-0.6 2.7 4.3 2c0 0 4.9 0.7 5.1 2.5c0 0 1.4 3.7-4.4 3.3h-4.2c0 0-1.8 1.1-1.2 3.3l-0.6 26.3c0 0-0.3 4.5 4 4.3c0 0 4.6-0.2 5.5 1.3c0 0 3.1 4.5-3.7 4.2c0 0-4.1-0.2-5 0.5c0 0-0.8 0.9-1.3 9.4c0 0 0.4 5.1-3.5 4.6c0 0-25.2 0.3-27.5-0.2c0 0-2.6 0.7-2.9-1.3z" />
					</g>
					<g id="g152">
						<path id="path154" class="s0" d="m167.5 44.9l5.5 1.5c1.2 1.1 15 0 15 0c3.1 0.1 3.3 4.3 3.3 4.3c0.7 9.8-0.7 57-0.7 57c-0.2 2.7-2.4 0.5-2.4 0.5c-8.9-0.4-12.3-0.2-12.3-0.2c-1.3 0.6-6.6 0-6.6 0c-4.5-0.5-4.3-3.2-4.3-3.2l0.5-58.3c-0.2-1.4 2-1.6 2-1.6z" />
					</g>
					<g id="g156">
						<path id="path158" class="s0" d="m201.1 46.7c17.2 0.6 16.8-0.9 16.8-0.9c3.1-1.4 3.3 0.2 3.3 0.2c0.4 0.7-0.3 8-0.3 8c0.3 0.9-0.4 51.7-0.4 51.7c-0.6 2.9-2.4 2-2.4 2c-2.3 1.8-13.9 0.7-13.9 0.7c-3.7-0.6-9.5 0.9-9.5 0.9c-0.9 1.1-2-0.5-2-0.5l0.8-8l0.3-23c-0.2-1 0.4-28.3 0.4-28.3c0.4-3 6.9-2.8 6.9-2.8z" />
					</g>
					<g id="g160">
						<path id="path162" class="s0" d="m227.9 53.1l-0.7 54.6c-0.2 1.8-0.5 2.9-0.5 2.9c-2.4 0.5-3.8-4.6-3.8-4.6l0.1-57.3c3.1-4.3 4.9 4.4 4.9 4.4z" />
					</g>
					<g id="g164">
						<path id="path166" class="s3" d="m227.9 53.1l-0.7 54.6c-0.2 1.8-0.5 2.9-0.5 2.9c-2.4 0.6-3.8-4.5-3.8-4.5l0.1-57.4c3.1-4.3 4.9 4.4 4.9 4.4z" />
					</g>
					<g id="g168">
						<path id="path170" class="s2" d="m200.8 65.9c-0.6-1.4 3-1.6 3-1.6l1.9 0.3c1.2-0.1 2.5 0.4 2.5 0.4c1.3 2-0.9 3.1-0.9 3.1l-0.7 2.3c-0.2 2 0 19.3 0 19.3c0.3 0.9 1.8 2.5 1.8 2.5c0 1.6-2 1.3-2 1.3l-5.3 0.2c-1.6-0.2-1.1-2-1.1-2c1.8-1 2.4-4.2 2.4-4.2v-18z" />
					</g>
					<g id="g172">
						<path id="path174" fill-rule="evenodd" class="s2" d="m176.3 82.8l-0.4 5.6l1.6 2.7c1.1 1.5-0.7 2.6-0.7 2.6l-5.8-0.6c-1.1-0.5 0-2.4 0-2.4c1.5-0.8 1.6-3.2 1.6-3.2l-0.1-10.5l0.1-7.7c0-0.9-1.4-2.5-1.4-2.5c-1.3-0.2-0.9-1.8-0.9-1.8c0.4-0.9 3.4-0.4 3.4-0.4h7.7c7.2 2.4 6.1 7.6 6.1 7.6c0.6 5.3-5 7.5-5 7.5l-0.4 2.9l5.2 8.3c0.9 0.8 0.8 1.5 0.8 1.5c-0.8 2-3.7 0-3.7 0l-6.5-10.2c-0.5-0.7-1.6 0.6-1.6 0.6zm0.2-14.4c0.1 4 0.1 9.5 0.1 9.5c3.5 2.7 5.5-1.1 5.5-1.1c4.5-4.4 0-8.4-0.7-9.4c-0.8-1.1-4.4-0.2-4.4-0.2z" />
					</g>
					<g id="g176">
						<path id="path178" class="s2" d="m138.5 153.2c0 0 1.3-0.5 1.6-1.4c0 0 3.8-0.4 4.4-0.9l12 0.9c0 0 11.7 0.9 16.8-2.7c0 0 1.8 0 3.1 0.5c0 0 2.5 0.6 3.3 1.6l6.9-0.1c0 0 4 1.2 3.6 3.8v3.2c0 0-0.7 6.6 1.1 6.9h5.2c0 0 4.4 2 3.9 4.6c0 0 0.1 3.6-3.7 4.3c0 0-3.8 1.1-5 0.9c0 0-1.3 1.7-1.5 3.7l-0.5 23.7c0 0-0.4 2.6 3.4 2.2c0 0 5.6-0.6 7.3 2.5c0 0 1.4 5.3-1.5 6.2l-2.2 1.1l-4.7 0.7c0 0-2 0.2-2.2 3.6v6.4c0 0 0.2 4.3-3.2 4.3l-5.1 0.4c0 0-1.3 1.1-3.8 0.4c0 0-30.9 0.5-31.9 0.2l-3.7 0.7c0 0-4 3.6-7.2 0.9l-2.6-2c0 0-1.8 0.4-2.5 0.2c-0.7-0.2-34.1 0.3-34.1 0.3c0 0-7.1 0.8-7.6-1.6c0 0-0.9-9.2-0.6-10.4c0 0 0-2.7-1.6-2.8c0 0-7.1-0.4-7.3-1.1c0 0-3.8-2.7-2.7-5.5c0 0 1.3-3.6 5.1-4c0 0 5.8 1 5.8-0.7c0 0 0.4-1.1 0.4-2.9c0 0 0.3-21.6 0.2-23c0 0 0.5-2.7-1.9-2.7c0 0-2.5 0.7-4.1-0.4c0 0-4.4 0.2-5.3-3.3c0 0-0.7-2.1 0.4-4c0 0 2-4 7.8-2.7c0 0 3.2 0.9 3.6-1.4l-0.2-8.7c0 0-0.7-2.4 3.8-3.7c0 0 5.8 1.7 7.6-1.2c0 0 2-4 3.7-1.3c0 0 3.4 3.3 12.8 2.9c0 0 16.4-1.3 16.7-0.6c0 0 4 0.6 5.1 1.9z" />
					</g>
					<g id="g180">
						<path id="path182" class="s3" d="m138.5 153c0 0 1.3-0.5 1.6-1.4c0 0 3.8-0.4 4.4-0.9l12 0.9c0 0 11.7 0.9 16.8-2.8c0 0 1.8 0 3.1 0.6c0 0 2.5 0.5 3.3 1.6l6.9-0.2c0 0 4 1.3 3.6 3.9v3.2c0 0-0.7 6.6 1.1 6.9h5.2c0 0 4.4 2 3.9 4.6c0 0 0.1 3.6-3.7 4.3c0 0-3.8 1.1-5 0.9c0 0-1.3 1.6-1.5 3.6l-0.5 23.8c0 0-0.4 2.5 3.4 2.2c0 0 5.6-0.6 7.3 2.5c0 0 1.4 5.3-1.5 6.2l-2.2 1.1l-4.7 0.7c0 0-2 0.2-2.2 3.6v6.4c0 0 0.2 4.3-3.2 4.3l-5.1 0.4c0 0-1.3 1.1-3.8 0.4c0 0-30.9 0.5-31.9 0.1l-3.7 0.8c0 0-4 3.6-7.2 0.9l-2.6-2c0 0-1.8 0.3-2.5 0.2c-0.7-0.2-34.1 0.3-34.1 0.3c0 0-7.1 0.8-7.6-1.6c0 0-0.9-9.3-0.6-10.4c0 0 0-2.7-1.6-2.9c0 0-7.1-0.3-7.3-1c0 0-3.8-2.8-2.7-5.5c0 0 1.3-3.6 5.1-4c0 0 5.8 0.9 5.8-0.7c0 0 0.4-1.1 0.4-2.9c0 0 0.3-21.6 0.2-23c0 0 0.5-2.8-1.9-2.8c0 0-2.5 0.8-4.1-0.3c0 0-4.4 0.2-5.3-3.3c0 0-0.7-2.2 0.4-4c0 0 2-4 7.8-2.7c0 0 3.2 0.9 3.6-1.4l-0.2-8.8c0 0-0.7-2.3 3.8-3.6c0 0 5.8 1.6 7.6-1.3c0 0 2-4 3.7-1.2c0 0 3.4 3.2 12.8 2.9c0 0 16.4-1.3 16.7-0.6c0 0 4 0.6 5.1 1.8z" />
					</g>
					<g id="g184">
						<path id="path186" class="s0" d="m143.2 224.5c0 0 2.2-1.1 3.6-0.7c1.5 0.4 22.7-0.2 22.7-0.2c0 0 9.3 0.7 10.7-0.5l2.2-0.8c0 0 0.9-1 0.9-2.5c0-1.4 0.2-6.3 0.2-6.3l0.5-1.8c0 0-0.2-1.9 0-50.3c0 0 0.7-3.8-1.6-6.2c0 0 0-1.4 0.7-1.2c0.7 0.2 0.4 0.2 0.4 0.2c0 0 3.2-1 3.8 0.3c0 0 1.4 4.3 0.2 6.9c0 0-0.4 5.3 2.3 5.3c0 0 1.1 1.1 3.3 0.5c0 0 4.7 0.6 4.7 2c0 0 0 3.3-3.3 2.7l-4.3 0.4c0 0-2.9 0.5-2.6 4c0.4 3.4-0.1 28.1-0.1 28.1c0 0 0 2.9 4.5 2.7c0 0 5.6-0.2 5.6 1.5c0 0 1.5 3.6-2.5 3.8c0 0-7.6-0.2-7.1 2c0 0-0.5 5.1-0.9 5.9c0 0 0.7 4.2-0.2 5c0 0-0.5 2.3-5.4 1.9c0 0-31.2-0.1-36.1 0.2c0 0-2.9-0.3-2.2-2.9z" />
					</g>
					<g id="g188">
						<path id="path190" class="s0" d="m137.6 221.1c0 0 3.1 0.5 3.1 3.4c0 2.9 0.2 4.6-1.7 4.9c-1.8 0.4-3.8-0.2-4.3-2.5c-0.6-2.4 0.4-5.3 2.9-5.8z" />
					</g>
					<g id="g192">
						<path id="path194" class="s0" d="m141.2 219.6c0 0 3.3-2.2 4.6-1.8c0 0 16.5 1.1 21.5 0.2c5.1-0.9 2-0.2 2-0.2c0 0 4.4 0 5.7-1.6c0 0 1.2-0.4 2 0.9l2.7 2.9c0 0 0.2 1.8-2.9 1.6c0 0-29.6 0-30.5 0.2c0 0-5.6 0.9-5.1-2.2z" />
					</g>
					<g id="g196">
						<path id="path198" class="s3" d="m141.2 219.6c0 0 3.3-2.2 4.5-1.8c0 0 16.6 1.1 21.6 0.2c5.1-0.9 2-0.2 2-0.2c0 0 4.4 0 5.7-1.6c0 0 1.2-0.4 2 0.9l2.7 2.9c0 0 0.2 1.8-2.9 1.6c0 0-29.6 0-30.5 0.2c0 0-5.6 0.9-5.1-2.2z" />
					</g>
					<g id="g200">
						<path id="path202" class="s0" d="m98.2 155.2c0 0 1.3 0 1.1 2.2l-0.3 54.8c0 0 0.5 3.6-2.6 6c0 0-1.6 2-1.6-1.1l0.7-55.9c0 0 0.2-4.1 2.7-6z" />
					</g>
					<g id="g204">
						<path id="path206" class="s3" d="m98.2 155.2c0 0 1.3 0 1.1 2.2l-0.3 54.8c0 0 0.5 3.6-2.6 6c0 0-1.6 2-1.6-1.1l0.7-55.9c0 0 0.2-4.2 2.7-6z" />
					</g>
					<g id="g208">
						<path id="path210" class="s0" d="m95.3 155.6c0 0-2.1 4-2 4.9l-0.1 12.2c0 0-0.2 7.8 0 8.7c0.1 0.9-0.2 23.7-0.2 23.7c0 0-0.2 4.4 0 5.8v9.8c0 0-0.4 4.4 2.9 3.3c0 0 31.9-0.7 33.9-0.2c0 0 2.9 0.5 1.8 2c0 0 0 1.3-2 0.9c0 0-15 1.4-28.6 0.9c0 0-9.1 0.5-9.7-0.5c0 0-1.4-0.2-1.4-5.5c0 0 0-4.9-0.4-5.8c0 0 0.4-2.5-4.1-3.1c0 0-6.4 1.1-6.6-2.7c0 0 0.9-2.7 7.1-2.3c0 0 4.5 0.7 3.6-3l0.6-26.8c0 0 0.5-4.7-2.6-4.9c0 0-2.9-0.2-3.8 0.2c0 0-5.2 0-4.9-3.1c0 0 1.8-3.3 7.1-2.5c0 0 4 0.7 4.2-3.8c0 0-0.2-9.3 2-9.6c0 0 4.5 0.1 3.2 1.4z" />
					</g>
					<g id="g212">
						<path id="path214" class="s0" d="m100.8 215.6c0 0 2.5 2.7 6.7 2.6l24.6 0.3c0 0 2.8 0.2 2.6 1.7c0 0-0.4 2.1-3.6 1.4l-29.8-0.3l-3.3 0.2c0 0-2.1-0.4 1.3-4.6z" />
					</g>
					<g id="g216">
						<path id="path218" class="s3" d="m100.8 215.6c0 0 2.5 2.7 6.7 2.6l24.6 0.3c0 0 2.8 0.2 2.6 1.7c0 0-0.4 2.1-3.6 1.4l-29.8-0.3l-3.3 0.2c0 0-2.1-0.4 1.3-4.6z" />
					</g>
					<g id="g220">
						<path id="path222" class="s0" d="m177.1 212l0.4-55.7c0-2.9 2.4-1.1 2.4-1.1l2.1 4c-0.5 2.9 0 4.7 0 4.7l-0.3 52.3c0.5 4.2-1.5 1.8-1.5 1.8c-1.1-0.6-3.2-4.7-3.2-4.7z" />
					</g>
					<g id="g224">
						<path id="path226" class="s3" d="m177.1 212l0.4-55.7c0-2.9 2.4-1.1 2.4-1.1l2.1 4c-0.5 2.9 0 4.7 0 4.7l-0.3 52.3c0.5 4.2-1.5 1.8-1.5 1.8c-1.1-0.6-3.3-4.7-3.3-4.7z" />
					</g>
					<g id="g228">
						<path id="path230" class="s0" d="m136.7 188.4c0 0 0.2 4.4-0.4 8.5c-0.3 2.3 0.8 12.9-0.2 18.4c0 0-0.1 1.8-4 0.2c0 0-23.2 0.5-23.9-0.2c0 0-6.3 0.2-6.9-3.1c0 0 0.9-24.9 0.4-25.8c0 0-0.4-13.6 0-14.9c0 0 0.5-12.5 0.2-13.9c0 0 0.1-2.9-0.4-4.4c0 0 0-1.8 3.1-0.7c0 0 1.1 2 7.1 1.1c0 0 4.3 0.7 8.5 0.2c0 0 9.2-0.7 11.6 0c0 0 3.6-0.7 4.7 3.3l-0.2 11.2l1.1 3.6l1.3-0.9l0.5-2.7l0.2-12c0 0 0.7-2.2 3.6-2.5c0 0 4.6-0.6 5.3-0.2c0.7 0.4 10.5 0.9 13.2 0.4c2.8-0.6 3.3 1.8 11.5-2.4c0 0 2.1 0.2 2.1 1.6c0 0-0.7 15.5 0 18.3c0 0 0 28.3-0.5 30.3l0.4 9.1c0 0 0.3 4-6 4.4c0 0 4 0.5-21.1-0.2c0 0-4-0.2-8.3 1.8c0 0-0.9-0.2-0.9-2.5c0 0 0.7-8.6 0-16.9l-0.4-9.3z" />
					</g>
					<g id="g232">
						<path id="path234" class="s2" d="m120.4 175.6c0 0 0.5 13.4 0 15.2l-0.2 2.9c0 0 0.7 2 1.8 2.7c0 0 0.9 2.5-1.3 2.4c0 0-4.5-0.4-5.6-0.2c0 0-2.5 0 0-3.3c0 0 0.9-1.3 0.7-4.5c0 0 0-15.2 0.4-16.1c0 0 0.4-2-0.9-2.6l-2.2 0.2l-2.7 2.5c0 0-0.6 2.8-1.8-0.1v-1.5l1.6-4.4l1.1-0.1c0 0 1.6 1 3.1 1.4h8.5l3.1-1.4c0 0 1.3 0.1 0.9 1.8c0 0 0.5 4.2-1.8 4.7c0 0-1.5-0.5-2.2-2.5c0 0-2.4-1.3-2.5 2.9z" />
					</g>
					<g id="g236">
						<path id="path238" class="s2" d="m163.3 170.7c2.6-2.1 3 0 3 0l0.3 2.7c0.4 3.2-1.1 3.2-1.1 3.2c-1.1-0.3-2.9-2.5-2.9-2.5c-4.9-2.9-6.1 2.5-6.1 2.5c0.9 3.1 4.9 5 4.9 5c4.1 1.8 6.5 5.4 6.5 5.4c3.2 5.1-1.3 9.2-1.3 9.2c-4.2 4.9-9.1 0.9-9.1 0.9l-1.4-0.3c-2.7 2.3-2.7 0-2.7 0c-0.6-6 0.7-6.4 0.7-6.4c1.1-0.3 2 1.7 2 1.7c-0.2 1.6 2.7 3.1 2.7 3.1c6 3 6.7-3.1 6.7-3.1c0.4-3.5-5.2-6.2-5.2-6.2c-7.7-3.3-6.9-8.3-6.9-8.3c0.2-7.5 7-6.9 7-6.9c0.6 0.9 2.9 0 2.9 0z" />
					</g>
					<g id="g240">
						<path id="path242" fill-rule="evenodd" class="s2" d="m138.3 166.8c1.3 1 1.5 2.8 1.5 2.8c3.6 9.6 6.7 23.6 6.7 23.6c0.9 1.8 2.5 3.2 2.5 3.2c3.1 1.1 0 2 0 2c-1.3 0.6-5.4-0.2-5.4-0.2c-2.2-0.4-1.3-1.1-1.3-1.1c0.9-0.9 0.2-4.5 0.2-4.5c-0.2-1.4-1.8-3.8-1.8-3.8c-0.7-0.4-2 1.3-2 1.3c0 0-2 0.7-2.2 0c-0.2-0.8-1.4-1.5-1.4-1.5c-2.2 0-3.1 5.4-3.1 5.4c1.2 4.6 0 3.8 0 3.8c-1.1 1.5-4.6 0.4-4.6 0.4c-1.6-0.4-0.5-1.6-0.5-1.6c2-0.4 2.5-2.6 2.5-2.6c0.9-1.2 6.7-24.8 6.7-24.8c0.6-1.1 0.9-3.3 2.2-2.4zm-2.9 12c-0.2 0.9-1.4 6-1.4 6l1.1 1.8c0 0 2.9 0.2 3.9 0.2c1.1 0 1.3-0.9 1.3-1.8c0-0.9-2-6.4-2-6.4l-0.9-1z" />
					</g>
					<g id="g244">
						<path id="path246" class="s2" d="m89.2 122.9c0 0-2 6.4-10.9-0.2l-30.5-0.7c0 0-4 1.3-4.5-2.9c0 0 0.7-8.3 0.3-9.1c0 0 0.2-2.3-3.8-2.3c0 0-6.1 0.7-6.3-4.7c0 0-1.1-5.8 7.4-5.6c0 0 2.7 1.2 2.9-2.2c0 0-0.3-23.6-0.2-25.4c0 0 0.8-2.2-3.4-2.6c0 0-6 1.3-6.7-2.7c0 0-0.4-6 3.6-6.3c0 0 4.9 0.3 5.8-0.9c0 0 1.1 0.7 0.9-3.7l0.2-7.4c0 0 0.6-2 3.6-1.8c0 0 5.7 0.3 6.4-0.2c0 0 1.3-1.6 1.6-2.4c0 0 2.9-0.1 3.5 0.6c0 0 4.3 2.9 20.8 1.8c0 0 2.6 0 3.1 0.7c0 0 3.1 2.4 4.9-0.2c0 0 2.7-0.5 10.9-0.3c0 0 8.9 2.3 15-2.7l2 0.3c0 0 2.6 4.2 4.4 2.9c0 0 5.4-0.5 6.3 0.6c0 0 1.9 2.7 0.9 9.8c0 0-1 3.1 4.2 3.1c0 0 6-1.1 5.3 4.5c0 0 1.6 6.3-8.4 5.4c0 0-1.2 1.9-1.1 3.1c0 0-0.1 20.7-0.3 23.1c0 0-0.2 3.2 4.2 3c0 0 5.8-0.3 5.9 4.9c0 0 0.8 6.9-7.6 5.6c0 0-2.5 0.4-2.9 2l-0.3 9.1c0 0 0.1 4.6-4.9 3.5c-0.8 0-28.3 0.5-30.7-0.2c0 0-1.3-0.2-1.6 0.5z" />
					</g>
					<g id="g248">
						<path id="path250" class="s3" d="m89.2 122.9c0 0-2 6.4-10.9-0.2l-30.5-0.7c0 0-4 1.3-4.5-2.9c0 0 0.7-8.3 0.3-9.1c0 0 0.2-2.3-3.8-2.3c0 0-6.1 0.7-6.3-4.7c0 0-1.1-5.8 7.4-5.6c0 0 2.7 1.2 2.9-2.2c0 0-0.3-23.6-0.2-25.4c0 0 0.8-2.2-3.4-2.6c0 0-6 1.3-6.7-2.7c0 0-0.4-6 3.6-6.3c0 0 4.9 0.3 5.8-0.9c0 0 1.1 0.7 0.9-3.7l0.2-7.4c0 0 0.6-2 3.6-1.8c0 0 5.7 0.3 6.4-0.2c0 0 1.3-1.6 1.6-2.4c0 0 2.9-0.1 3.5 0.6c0 0 4.3 2.9 20.8 1.8c0 0 2.6 0 3.1 0.7c0 0 3.1 2.4 4.9-0.2c0 0 2.7-0.5 10.9-0.3c0 0 8.9 2.3 15-2.7l2 0.3c0 0 2.6 4.2 4.4 2.9c0 0 5.4-0.5 6.4 0.6c0 0 1.8 2.7 0.8 9.8c0 0-1 3.1 4.2 3.1c0 0 6-1.1 5.3 4.5c0 0 1.6 6.3-8.4 5.4c0 0-1.2 1.8-1.1 3.1c0 0-0.1 20.7-0.3 23.1c0 0-0.2 3.2 4.2 3c0 0 5.8-0.3 5.9 4.9c0 0 0.8 6.9-7.6 5.6c0 0-2.5 0.4-2.9 2l-0.3 9.1c0 0 0.2 4.6-4.9 3.5c-0.8 0-28.3 0.5-30.7-0.2c0 0-1.3-0.2-1.6 0.5z" />
					</g>
					<g id="g252">
						<path id="path254" class="s0" d="m54.9 48.2c0 0 0.4 3.6 0.4 4.5c0 0.9-0.6 52.5-0.6 52.5c0 0 0.6 4-2.9 5.9c0 0-0.9 0.4-1.1-2.1l0.4-54.4c0 0 0.3-6.8 3.8-6.4z" />
					</g>
					<g id="g256">
						<path id="path258" class="s3" d="m54.9 48.2c0 0 0.4 3.6 0.4 4.5c0 0.9-0.6 52.5-0.6 52.5c0 0 0.6 4-2.9 5.9c0 0-0.9 0.4-1.1-2.1l0.4-54.4c0 0 0.3-6.8 3.8-6.4z" />
					</g>
					<g id="g260">
						<path id="path262" class="s0" d="m53.1 116l23.6 0.4c2.1 0 2.3 1.4 2.3 1.4c0 1.9-1.4 1.7-1.4 1.7h-28.3c-3.7-0.2-3.3-2.9-3.3-2.9v-6.9c0.2-3.6-3.6-4.4-3.6-4.4c-5.3 1.1-6.6-2.1-6.6-2.1c-0.1-3.8 6-3.5 6-3.5c5.1 0 3.7-4.5 3.7-4.5l0.3-27.4c-0.3-2.7-6.9-2.7-6.9-2.7c-4.1 0.7-3.1-3.3-3.1-3.3c2-2 6.4-1.8 6.4-1.8c3.8 0.2 3.8-4 3.8-4l0.2-7.4c4.2-3.8 4.9-0.8 4.9-0.8c-2.4 3.7-1.8 12.6-1.8 12.6c0 0-0.4-1.7-0.2-0.8c0.2 0.9-0.2 52.1-0.2 52.1c0.4 5.6 4.2 4.3 4.2 4.3z" />
					</g>
					<g id="g264">
						<path id="path266" class="s0" d="m57.3 109.7c0.7 0.2 4.1 1.1 4.1 1.1c1.5 0.3 18.2 0.1 18.2 0.1c5.2 3 0 4.2 0 4.2l-5.1-1.1h-18.7c-2.7 0.6-2-1.9-2-1.9c1.6-3.1 3.5-2.4 3.5-2.4z" />
					</g>
					<g id="g268">
						<path id="path270" class="s3" d="m57.2 109.7c0.8 0.2 4.2 1.1 4.2 1.1c1.5 0.3 18.2 0.1 18.2 0.1c5.2 3 0 4.2 0 4.2l-5.1-1.1h-18.7c-2.7 0.6-2-2-2-2c1.6-3 3.4-2.3 3.4-2.3z" />
					</g>
					<g id="g272">
						<path id="path274" class="s0" d="m88.5 118.4c0.3 3.6-3 4.2-3 4.2c-3.6 0-3.9-3.5-3.9-3.5c-0.2-4.5 3.2-4.5 3.2-4.5c1.7-0.7 3.7 3.8 3.7 3.8z" />
					</g>
					<g id="g276">
						<path id="path278" class="s0" d="m87.4 112.8c0 0 1.6-1.8 2.7-1.8c0 0 18.1 1.6 21.2-0.6c0 0 2.7-0.5 3.4 0c0 0 2.8 2.2 2.8 3.5c0 0-0.2 1.6-3.5 0.7c0 0-20.5 0.2-21.6 0.2c0 0-5.6 1.2-5-2z" />
					</g>
					<g id="g280">
						<path id="path282" class="s3" d="m87.4 112.8c0 0 1.6-1.9 2.7-1.9c0 0 18.1 1.7 21.2-0.5c0 0 2.7-0.5 3.5 0c0 0 2.7 2.2 2.7 3.5c0 0-0.2 1.6-3.5 0.7c0 0-20.5 0.2-21.6 0.2c0 0-5.6 1.2-5-2z" />
					</g>
					<g id="g284">
						<path id="path286" class="s0" d="m90.3 118.2c0 0 0-1.4 2.5-1.4l25.4-0.2c0 0 2.4 1.2 2.4-3.1c0 0 0.9-19.8 1-41.6c0-6.4 0.3-13.2 0-19.5c0 0-0.5-2.7-1.2-3.3c0 0 0-2.9 3.1-1.8c0 0 2.7 0.2 2 4.3l0.1 6.4c0 0-0.5 2.7 4.4 2c0 0 4.9 0.7 5.1 2.5c0 0 1.4 3.7-4.4 3.3h-4.1c0 0-1.9 1.1-1.3 3.3l-0.6 26.3c0 0-0.3 4.5 4 4.3c0 0 4.6-0.2 5.5 1.3c0 0 3 4.5-3.7 4.2c0 0-4.1-0.2-5 0.5c0 0-0.8 0.9-1.3 9.4c0 0 0.3 5.1-3.5 4.6c0 0-25.2 0.3-27.5-0.2c0 0-2.6 0.7-2.9-1.3z" />
					</g>
					<g id="g288">
						<path id="path290" class="s0" d="m59.6 44.9l5.5 1.5c1.2 1.1 15 0 15 0c3.1 0.2 3.3 4.3 3.3 4.3c0.7 9.8-0.8 57-0.8 57c-0.1 2.7-2.3 0.5-2.3 0.5c-8.9-0.3-12.3-0.2-12.3-0.2c-1.3 0.6-6.6 0-6.6 0c-4.5-0.5-4.3-3.2-4.3-3.2l0.5-58.2c-0.2-1.5 2-1.7 2-1.7z" />
					</g>
					<g id="g292">
						<path id="path294" class="s4" d="m120 53.1l-0.7 54.6c-0.2 1.8-0.5 2.9-0.5 2.9c-2.4 0.6-3.9-4.5-3.9-4.5l0.2-57.4c3.1-4.3 4.9 4.4 4.9 4.4z" />
					</g>
					<g id="g296">
						<path id="path298" class="s3" d="m120 53.1l-0.7 54.6c-0.2 1.8-0.5 2.9-0.5 2.9c-2.4 0.6-3.9-4.5-3.9-4.5l0.2-57.4c3.1-4.3 4.9 4.4 4.9 4.4z" />
					</g>
					<g id="g300">
						<path id="path302" class="s0" d="m93.2 46.5c17.2 0.6 16.9-0.9 16.9-0.9c3-1.5 3.2 0.2 3.2 0.2c0.4 0.7-0.4 8-0.4 8c0.4 0.9-0.3 51.7-0.3 51.7c-0.6 2.9-2.4 2-2.4 2c-2.3 1.8-13.9 0.7-13.9 0.7c-3.7-0.6-9.5 0.9-9.5 0.9c-0.9 1.1-2-0.6-2-0.6l0.8-7.9l0.3-23.1c-0.2-0.9 0.4-28.3 0.4-28.3c0.3-2.9 6.9-2.7 6.9-2.7z" />
					</g>
					<g id="g304">
						<path id="path306" class="s2" d="m80.7 66l-1.7 3.5c0 0-3.9 17.5-6.1 21.2c0 0-0.4 3.6-3.5 0.7c0 0-7-22.3-7.4-23l-2.4-1.7c0 0-1.4-2 1.1-2.1l6.7 0.1c0 0 2.2 1.8-0.7 3.9c0 0 0.4 2.9 4.2 13.9c0 0 1.1 4.2 2.3 1.1l3.7-12.9l-1.1-3.8c0 0-1.1-1.8 0.5-2c0 0 3.8-0.3 4.4 1.1z" />
					</g>
					<g id="g308">
						<path id="path310" class="s5" d="m90.7 67.8c-2.2-0.9-1.5-2.7-1.5-2.7l4.9-0.6c0.7 0.8 6.9-0.1 6.9-0.1c0.9-0.4 1.4 0.9 1.4 0.9l1 3.1c-1 2.5-1.9 0.3-1.9 0.3c-0.3-1.1-3.9-1.8-3.9-1.8c-3.1-0.4-2.8 4.2-2.8 4.2c-0.9 2.3 0.6 5.2 0.6 5.2c3.1 1.3 4.1-0.9 4.1-0.9c0.2-0.7 1.9-0.5 1.9-0.5c1.2 1.8 0 4.7 0 4.7c-0.6 0.9-4-1.3-4-1.3c-3.1-0.2-2.9 1.8-2.9 1.8v8c0 1.5 1.4 2.7 1.4 2.7c6.5 0.9 7.1-1.9 7.1-1.9c1.8-3.5 2.4-1.1 2.4-1.1c1.2 6.5-3.9 5.6-3.9 5.6c-13.2-0.2-11.6-1.3-11.6-1.3c-1.2-0.2 0.6-2.5 0.6-2.5l0.5-1.5l0.2-19.2c0-0.7-0.5-1.1-0.5-1.1z" />
					</g>
				</g>
			</g>
		</g>
	</g>
</svg>