<svg width="395" height="403" viewBox="0 0 395 403" fill="none" xmlns="http://www.w3.org/2000/svg">
<g opacity="0.34">
<g opacity="0.4">
<g filter="url(#filter0_f)">
<ellipse cx="164" cy="185.214" rx="84.1367" ry="61.3333" transform="rotate(32.456 164 185.214)" fill="#001AFF"/>
</g>
<g filter="url(#filter1_f)">
<ellipse cx="231" cy="224.214" rx="84.1367" ry="61.3333" transform="rotate(32.456 231 224.214)" fill="#AF2CBB"/>
</g>
</g>
<g opacity="0.4">
<g filter="url(#filter2_f)">
<ellipse rx="84.1367" ry="61.3333" transform="matrix(-0.866025 0.5 0.5 0.866025 231.805 186.668)" fill="#001AFF"/>
</g>
<g filter="url(#filter3_f)">
<ellipse rx="84.1367" ry="61.3333" transform="matrix(-0.866025 0.5 0.5 0.866025 163.195 222.761)" fill="#AF2CBB"/>
</g>
</g>
<g filter="url(#filter4_f)">
<ellipse cx="197.164" cy="201.309" rx="117" ry="42.5" transform="rotate(-90 197.164 201.309)" fill="#814BF6"/>
</g>
</g>
<g filter="url(#filter5_f)">
<circle cx="199.664" cy="206.309" r="51" stroke="#814BF6" stroke-width="8"/>
</g>
<circle cx="199.664" cy="206.309" r="51" stroke="#814BF6" stroke-width="8"/>
<g filter="url(#filter6_f)">
<circle cx="199.664" cy="206.308" r="31.5" stroke="#00BCFF" stroke-width="8"/>
</g>
<circle cx="199.664" cy="206.308" r="31.5" stroke="#00BCFF" stroke-width="8"/>
<path d="M145.264 309.569C143.984 309.569 142.911 309.316 142.044 308.809C141.191 308.289 140.551 307.596 140.124 306.729C139.711 305.849 139.504 304.849 139.504 303.729C139.504 302.649 139.717 301.669 140.144 300.789C140.571 299.896 141.237 299.182 142.144 298.649C143.051 298.116 144.191 297.849 145.564 297.849C146.124 297.849 146.704 297.922 147.304 298.069C147.904 298.216 148.384 298.409 148.744 298.649L148.084 300.769C147.284 300.302 146.444 300.069 145.564 300.069C144.617 300.069 143.884 300.389 143.364 301.029C142.857 301.656 142.604 302.549 142.604 303.709C142.604 304.869 142.837 305.769 143.304 306.409C143.771 307.049 144.424 307.369 145.264 307.369C145.824 307.369 146.331 307.276 146.784 307.089C147.251 306.889 147.751 306.609 148.284 306.249L149.164 308.189C148.684 308.589 148.104 308.922 147.424 309.189C146.757 309.442 146.037 309.569 145.264 309.569ZM156.162 309.569C154.909 309.569 153.849 309.316 152.982 308.809C152.116 308.302 151.469 307.609 151.042 306.729C150.616 305.849 150.402 304.849 150.402 303.729C150.402 302.582 150.616 301.569 151.042 300.689C151.469 299.796 152.116 299.102 152.982 298.609C153.849 298.102 154.909 297.849 156.162 297.849C157.416 297.849 158.476 298.116 159.342 298.649C160.209 299.182 160.856 299.896 161.282 300.789C161.722 301.669 161.942 302.636 161.942 303.689C161.942 304.742 161.722 305.716 161.282 306.609C160.856 307.502 160.209 308.222 159.342 308.769C158.476 309.302 157.416 309.569 156.162 309.569ZM156.182 307.369C157.956 307.369 158.842 306.149 158.842 303.709C158.842 301.282 157.956 300.069 156.182 300.069C154.396 300.069 153.502 301.282 153.502 303.709C153.502 306.149 154.396 307.369 156.182 307.369ZM174.546 293.309V309.309H172.266L171.966 308.449C171.019 309.196 169.946 309.569 168.746 309.569C167.732 309.569 166.839 309.349 166.066 308.909C165.292 308.469 164.686 307.816 164.246 306.949C163.819 306.069 163.606 305.009 163.606 303.769C163.606 301.716 164.172 300.216 165.306 299.269C166.452 298.322 167.972 297.849 169.866 297.849C170.506 297.849 171.046 297.909 171.486 298.029V293.309H174.546ZM166.706 303.769C166.706 305.062 166.926 305.982 167.366 306.529C167.806 307.076 168.372 307.349 169.066 307.349C169.546 307.349 169.972 307.296 170.346 307.189C170.732 307.069 171.112 306.882 171.486 306.629V300.249C171.059 300.129 170.579 300.069 170.046 300.069C167.819 300.069 166.706 301.302 166.706 303.769ZM182.803 307.369C183.443 307.369 184.03 307.249 184.563 307.009C185.096 306.769 185.67 306.416 186.283 305.949L187.163 307.889C186.496 308.462 185.816 308.889 185.123 309.169C184.443 309.436 183.67 309.569 182.803 309.569C181.523 309.569 180.45 309.316 179.583 308.809C178.73 308.289 178.09 307.596 177.663 306.729C177.25 305.849 177.043 304.849 177.043 303.729C177.043 302.582 177.256 301.569 177.683 300.689C178.11 299.796 178.75 299.102 179.603 298.609C180.47 298.102 181.536 297.849 182.803 297.849C184.256 297.849 185.376 298.249 186.163 299.049C186.963 299.849 187.37 300.976 187.383 302.429C187.383 302.962 187.303 303.502 187.143 304.049H180.063C180.103 305.142 180.343 305.969 180.783 306.529C181.223 307.089 181.896 307.369 182.803 307.369ZM182.623 299.909C181.356 299.909 180.556 300.622 180.223 302.049H184.403C184.416 301.982 184.423 301.889 184.423 301.769C184.41 301.169 184.236 300.709 183.903 300.389C183.583 300.069 183.156 299.909 182.623 299.909ZM193.035 309.569C192.288 309.569 191.568 309.496 190.875 309.349C190.181 309.202 189.575 309.009 189.055 308.769L189.675 306.649C190.861 307.129 191.968 307.369 192.995 307.369C193.608 307.369 194.101 307.276 194.475 307.089C194.861 306.889 195.055 306.589 195.055 306.189C195.055 305.856 194.875 305.582 194.515 305.369C194.168 305.156 193.615 304.916 192.855 304.649C192.108 304.382 191.501 304.136 191.035 303.909C190.568 303.669 190.161 303.349 189.815 302.949C189.481 302.536 189.315 302.029 189.315 301.429C189.315 300.256 189.741 299.369 190.595 298.769C191.448 298.156 192.608 297.849 194.075 297.849C194.688 297.849 195.308 297.916 195.935 298.049C196.561 298.169 197.115 298.342 197.595 298.569L196.955 300.709C195.995 300.282 195.061 300.069 194.155 300.069C193.581 300.069 193.135 300.156 192.815 300.329C192.495 300.489 192.335 300.736 192.335 301.069C192.335 301.402 192.501 301.669 192.835 301.869C193.168 302.056 193.695 302.269 194.415 302.509C195.161 302.749 195.781 302.989 196.275 303.229C196.768 303.469 197.188 303.816 197.535 304.269C197.895 304.722 198.075 305.296 198.075 305.989C198.075 307.109 197.641 307.989 196.775 308.629C195.908 309.256 194.661 309.569 193.035 309.569ZM206.378 297.849C207.378 297.849 208.265 298.082 209.038 298.549C209.812 299.002 210.412 299.676 210.838 300.569C211.278 301.449 211.498 302.502 211.498 303.729C211.498 305.729 210.925 307.202 209.778 308.149C208.645 309.096 207.138 309.569 205.258 309.569C204.618 309.569 204.078 309.509 203.638 309.389V313.969H200.578V298.109H202.858L203.158 298.949C204.118 298.216 205.192 297.849 206.378 297.849ZM205.058 307.369C207.298 307.369 208.418 306.129 208.418 303.649C208.418 302.356 208.192 301.436 207.738 300.889C207.298 300.342 206.732 300.069 206.038 300.069C205.558 300.069 205.132 300.129 204.758 300.249C204.385 300.356 204.012 300.536 203.638 300.789V307.189C204.145 307.309 204.618 307.369 205.058 307.369ZM220.396 297.849C221.809 297.849 222.782 298.222 223.316 298.969C223.849 299.702 224.116 300.776 224.116 302.189V309.309H221.056V302.549C221.056 301.642 220.936 301.009 220.696 300.649C220.469 300.289 220.042 300.109 219.416 300.109C218.656 300.109 217.876 300.389 217.076 300.949V309.309H214.016V293.309H217.076V298.829C218.209 298.176 219.316 297.849 220.396 297.849ZM232.276 307.369C232.916 307.369 233.502 307.249 234.036 307.009C234.569 306.769 235.142 306.416 235.756 305.949L236.636 307.889C235.969 308.462 235.289 308.889 234.596 309.169C233.916 309.436 233.142 309.569 232.276 309.569C230.996 309.569 229.922 309.316 229.056 308.809C228.202 308.289 227.562 307.596 227.136 306.729C226.722 305.849 226.516 304.849 226.516 303.729C226.516 302.582 226.729 301.569 227.156 300.689C227.582 299.796 228.222 299.102 229.076 298.609C229.942 298.102 231.009 297.849 232.276 297.849C233.729 297.849 234.849 298.249 235.636 299.049C236.436 299.849 236.842 300.976 236.856 302.429C236.856 302.962 236.776 303.502 236.616 304.049H229.536C229.576 305.142 229.816 305.969 230.256 306.529C230.696 307.089 231.369 307.369 232.276 307.369ZM232.096 299.909C230.829 299.909 230.029 300.622 229.696 302.049H233.876C233.889 301.982 233.896 301.889 233.896 301.769C233.882 301.169 233.709 300.709 233.376 300.389C233.056 300.069 232.629 299.909 232.096 299.909ZM246.187 300.789C245.507 300.789 244.881 300.842 244.307 300.949C243.747 301.056 243.121 301.269 242.427 301.589V309.309H239.367V298.109H241.647L242.127 299.469C242.821 298.882 243.487 298.469 244.127 298.229C244.781 297.989 245.467 297.869 246.187 297.869V300.789ZM253.369 307.369C254.009 307.369 254.596 307.249 255.129 307.009C255.663 306.769 256.236 306.416 256.849 305.949L257.729 307.889C257.063 308.462 256.383 308.889 255.689 309.169C255.009 309.436 254.236 309.569 253.369 309.569C252.089 309.569 251.016 309.316 250.149 308.809C249.296 308.289 248.656 307.596 248.229 306.729C247.816 305.849 247.609 304.849 247.609 303.729C247.609 302.582 247.823 301.569 248.249 300.689C248.676 299.796 249.316 299.102 250.169 298.609C251.036 298.102 252.103 297.849 253.369 297.849C254.823 297.849 255.943 298.249 256.729 299.049C257.529 299.849 257.936 300.976 257.949 302.429C257.949 302.962 257.869 303.502 257.709 304.049H250.629C250.669 305.142 250.909 305.969 251.349 306.529C251.789 307.089 252.463 307.369 253.369 307.369ZM253.189 299.909C251.923 299.909 251.123 300.622 250.789 302.049H254.969C254.983 301.982 254.989 301.889 254.989 301.769C254.976 301.169 254.803 300.709 254.469 300.389C254.149 300.069 253.723 299.909 253.189 299.909Z" fill="white"/>
<defs>
<filter id="filter0_f" x="1.72742" y="32.5322" width="324.545" height="305.365" filterUnits="userSpaceOnUse" color-interpolation-filters="sRGB">
<feFlood flood-opacity="0" result="BackgroundImageFix"/>
<feBlend mode="normal" in="SourceGraphic" in2="BackgroundImageFix" result="shape"/>
<feGaussianBlur stdDeviation="42" result="effect1_foregroundBlur"/>
</filter>
<filter id="filter1_f" x="68.7274" y="71.5322" width="324.545" height="305.365" filterUnits="userSpaceOnUse" color-interpolation-filters="sRGB">
<feFlood flood-opacity="0" result="BackgroundImageFix"/>
<feBlend mode="normal" in="SourceGraphic" in2="BackgroundImageFix" result="shape"/>
<feGaussianBlur stdDeviation="42" result="effect1_foregroundBlur"/>
</filter>
<filter id="filter2_f" x="68.7294" y="34.9072" width="326.151" height="303.52" filterUnits="userSpaceOnUse" color-interpolation-filters="sRGB">
<feFlood flood-opacity="0" result="BackgroundImageFix"/>
<feBlend mode="normal" in="SourceGraphic" in2="BackgroundImageFix" result="shape"/>
<feGaussianBlur stdDeviation="42" result="effect1_foregroundBlur"/>
</filter>
<filter id="filter3_f" x="0.119751" y="71.001" width="326.151" height="303.52" filterUnits="userSpaceOnUse" color-interpolation-filters="sRGB">
<feFlood flood-opacity="0" result="BackgroundImageFix"/>
<feBlend mode="normal" in="SourceGraphic" in2="BackgroundImageFix" result="shape"/>
<feGaussianBlur stdDeviation="42" result="effect1_foregroundBlur"/>
</filter>
<filter id="filter4_f" x="70.6638" y="0.309082" width="253" height="402" filterUnits="userSpaceOnUse" color-interpolation-filters="sRGB">
<feFlood flood-opacity="0" result="BackgroundImageFix"/>
<feBlend mode="normal" in="SourceGraphic" in2="BackgroundImageFix" result="shape"/>
<feGaussianBlur stdDeviation="42" result="effect1_foregroundBlur"/>
</filter>
<filter id="filter5_f" x="108.664" y="115.309" width="182" height="182" filterUnits="userSpaceOnUse" color-interpolation-filters="sRGB">
<feFlood flood-opacity="0" result="BackgroundImageFix"/>
<feBlend mode="normal" in="SourceGraphic" in2="BackgroundImageFix" result="shape"/>
<feGaussianBlur stdDeviation="18" result="effect1_foregroundBlur"/>
</filter>
<filter id="filter6_f" x="154.164" y="160.808" width="91" height="91" filterUnits="userSpaceOnUse" color-interpolation-filters="sRGB">
<feFlood flood-opacity="0" result="BackgroundImageFix"/>
<feBlend mode="normal" in="SourceGraphic" in2="BackgroundImageFix" result="shape"/>
<feGaussianBlur stdDeviation="5" result="effect1_foregroundBlur"/>
</filter>
</defs>
</svg>
