<svg width="24" height="24" viewBox="0 0 24 24" fill="none" xmlns="http://www.w3.org/2000/svg">
<path d="M10.3616 1.76217C11.5412 0.74872 13.2842 0.74872 14.4638 1.76217C15.1018 2.3103 15.9326 2.58026 16.771 2.51182C18.321 2.38528 19.7311 3.40976 20.0897 4.92302C20.2837 5.74148 20.7972 6.44824 21.5156 6.88563C22.844 7.69434 23.3826 9.35199 22.7833 10.787C22.4591 11.5632 22.4591 12.4368 22.7833 13.213C23.3826 14.648 22.844 16.3057 21.5156 17.1144C20.7972 17.5518 20.2837 18.2585 20.0897 19.077C19.7311 20.5902 18.321 21.6147 16.771 21.4882C15.9326 21.4197 15.1018 21.6897 14.4638 22.2378C13.2842 23.2513 11.5412 23.2513 10.3616 22.2378C9.72359 21.6897 8.89274 21.4197 8.0544 21.4882C6.50438 21.6147 5.0943 20.5902 4.73567 19.077C4.5417 18.2585 4.0282 17.5518 3.30974 17.1144C1.98138 16.3057 1.44277 14.648 2.0421 13.213C2.36625 12.4368 2.36625 11.5632 2.0421 10.787C1.44277 9.35199 1.98138 7.69434 3.30974 6.88563C4.0282 6.44824 4.5417 5.74148 4.73567 4.92302C5.0943 3.40976 6.50438 2.38528 8.0544 2.51182C8.89274 2.58026 9.72359 2.3103 10.3616 1.76217Z" fill="#814BF6"/>
<path d="M15.0641 19.312L13.6241 17.376C13.1974 17.4613 12.7814 17.504 12.3761 17.504C11.3201 17.504 10.3494 17.2587 9.4641 16.768C8.58943 16.2773 7.89076 15.5947 7.3681 14.72C6.8561 13.8347 6.6001 12.8427 6.6001 11.744C6.6001 10.6453 6.8561 9.65867 7.3681 8.784C7.89076 7.90933 8.58943 7.22667 9.4641 6.736C10.3494 6.24533 11.3201 6 12.3761 6C13.4321 6 14.3974 6.24533 15.2721 6.736C16.1574 7.22667 16.8508 7.90933 17.3521 8.784C17.8641 9.65867 18.1201 10.6453 18.1201 11.744C18.1201 12.704 17.9228 13.584 17.5281 14.384C17.1441 15.1733 16.6054 15.8293 15.9121 16.352L18.3761 19.312H15.0641ZM9.4001 11.744C9.4001 12.736 9.66676 13.5307 10.2001 14.128C10.7441 14.7147 11.4694 15.008 12.3761 15.008C13.2721 15.008 13.9868 14.7093 14.5201 14.112C15.0641 13.5147 15.3361 12.7253 15.3361 11.744C15.3361 10.752 15.0641 9.96267 14.5201 9.376C13.9868 8.77867 13.2721 8.48 12.3761 8.48C11.4694 8.48 10.7441 8.77333 10.2001 9.36C9.66676 9.94667 9.4001 10.7413 9.4001 11.744Z" fill="white"/>
</svg>
