<?xml version="1.0" encoding="utf-8"?>
<!-- Generator: Adobe Illustrator 26.0.1, SVG Export Plug-In . SVG Version: 6.00 Build 0)  -->
<svg version="1.1" id="Layer_1" xmlns="http://www.w3.org/2000/svg" xmlns:xlink="http://www.w3.org/1999/xlink" x="0px" y="0px"
	 viewBox="0 0 24 24" style="enable-background:new 0 0 24 24;" xml:space="preserve">
<style type="text/css">
	.st0{fill:none;}
	.st1{fill:#11A1BB;}
</style>
<g>
	<path class="st0" d="M0,0h24v24H0V0z"/>
</g>
<g>
	<g>
		<path class="st1" d="M4,6H2v14c0,1.1,0.9,2,2,2h14v-2H4V6z"/>
		<path class="st1" d="M20,2H8C6.9,2,6,2.9,6,4v12c0,1.1,0.9,2,2,2h12c1.1,0,2-0.9,2-2V4C22,2.9,21.1,2,20,2z M14,15
			c-0.6,0-1.1-0.5-1.1-1.1c0-0.6,0.5-1,1.1-1c0.6,0,1,0.4,1,1C15,14.5,14.6,15,14,15z M16.5,8.8c-0.6,0.9-1.2,1.2-1.6,1.8
			c-0.1,0.2-0.2,0.4-0.2,1.2h-1.5c0-0.4-0.1-1.1,0.3-1.6c0.4-0.7,1.2-1.2,1.6-1.8c0.5-0.7,0.2-1.9-1.1-1.9c-0.9,0-1.3,0.7-1.5,1.2
			l-1.4-0.6C11.5,6,12.5,5,14,5c1.2,0,2.1,0.6,2.5,1.3C16.9,6.9,17.1,8,16.5,8.8z"/>
	</g>
</g>
</svg>
