<svg width="16" height="16" viewBox="0 0 16 16" fill="none" xmlns="http://www.w3.org/2000/svg">
<g clip-path="url(#clip0)">
<path d="M8 0C6.41775 0 4.87103 0.469192 3.55544 1.34824C2.23985 2.22729 1.21447 3.47672 0.608967 4.93853C0.00346625 6.40034 -0.15496 8.00887 0.153721 9.56072C0.462403 11.1126 1.22433 12.538 2.34315 13.6569C3.46197 14.7757 4.88743 15.5376 6.43928 15.8463C7.99113 16.155 9.59966 15.9965 11.0615 15.391C12.5233 14.7855 13.7727 13.7602 14.6518 12.4446C15.5308 11.129 16 9.58225 16 8C15.9976 5.879 15.154 3.84555 13.6542 2.34578C12.1545 0.846002 10.121 0.00238211 8 0V0ZM8 12C7.20888 12 6.43552 11.7654 5.77772 11.3259C5.11993 10.8864 4.60724 10.2616 4.30449 9.53073C4.00174 8.79983 3.92252 7.99556 4.07686 7.21964C4.2312 6.44371 4.61217 5.73098 5.17158 5.17157C5.73099 4.61216 6.44372 4.2312 7.21964 4.07686C7.99557 3.92252 8.79983 4.00173 9.53074 4.30448C10.2616 4.60723 10.8864 5.11992 11.3259 5.77772C11.7654 6.43552 12 7.20887 12 8C12 9.06087 11.5786 10.0783 10.8284 10.8284C10.0783 11.5786 9.06087 12 8 12Z" fill="#814BF6"/>
</g>
<defs>
<clipPath id="clip0">
<rect width="16" height="16" fill="white"/>
</clipPath>
</defs>
</svg>
